<svg width="25" height="24" viewBox="0 0 25 24" fill="none" xmlns="http://www.w3.org/2000/svg">
<path d="M0.5 12C0.5 5.37258 5.87258 0 12.5 0C19.1274 0 24.5 5.37258 24.5 12C24.5 18.6274 19.1274 24 12.5 24C5.87258 24 0.5 18.6274 0.5 12Z" fill="white"/>
<rect x="17.5" y="11" width="2" height="10" transform="rotate(90 17.5 11)" fill="#DDDEE6"/>
<path d="M12.5 23C6.42487 23 1.5 18.0751 1.5 12H-0.5C-0.5 19.1797 5.3203 25 12.5 25V23ZM23.5 12C23.5 18.0751 18.5751 23 12.5 23V25C19.6797 25 25.5 19.1797 25.5 12H23.5ZM12.5 1C18.5751 1 23.5 5.92487 23.5 12H25.5C25.5 4.8203 19.6797 -1 12.5 -1V1ZM12.5 -1C5.3203 -1 -0.5 4.8203 -0.5 12H1.5C1.5 5.92487 6.42487 1 12.5 1V-1Z" fill="#DDDEE6"/>
</svg>
