<svg width="25" height="24" viewBox="0 0 25 24" fill="none" xmlns="http://www.w3.org/2000/svg">
<circle cx="12.5" cy="11.5" r="1.5" fill="#AAB0BC"/>
<circle cx="17.5" cy="11.5" r="1.5" fill="#AAB0BC"/>
<circle cx="7.5" cy="11.5" r="1.5" fill="#AAB0BC"/>
<path d="M4.5 2H20.5V-2H4.5V2ZM22.5 4V20H26.5V4H22.5ZM20.5 22H4.5V26H20.5V22ZM2.5 20V4H-1.5V20H2.5ZM4.5 22C3.39543 22 2.5 21.1046 2.5 20H-1.5C-1.5 23.3137 1.18629 26 4.5 26V22ZM22.5 20C22.5 21.1046 21.6046 22 20.5 22V26C23.8137 26 26.5 23.3137 26.5 20H22.5ZM20.5 2C21.6046 2 22.5 2.89543 22.5 4H26.5C26.5 0.686291 23.8137 -2 20.5 -2V2ZM4.5 -2C1.18629 -2 -1.5 0.686292 -1.5 4H2.5C2.5 2.89543 3.39543 2 4.5 2V-2Z" fill="#E9EBEE"/>
</svg>
