<svg width="17" height="16" viewBox="0 0 17 16" fill="none" xmlns="http://www.w3.org/2000/svg">
<path d="M11.1615 14.5736L5.75447 9.16599L3.35659 9.16599C2.97805 9.16599 2.59658 9.082 2.24076 8.91634L2.00746 8.79327C1.69423 8.64803 1.5 8.34413 1.5 7.99941C1.5 7.65469 1.69423 7.35079 1.99403 7.21198L2.25359 7.07606C2.59656 6.91683 2.97745 6.83283 3.35657 6.83283L5.75444 6.83283L11.1604 1.42696C11.4357 1.15166 11.8014 1 12.191 1L12.8746 1C12.9814 0.999999 13.0794 1.05832 13.1301 1.15166C13.1814 1.24498 13.1779 1.35932 13.1196 1.44914L9.59717 6.946C10.4797 7.00025 11.2164 7.07374 12.1129 7.16356L13.0316 7.2563L14.3807 5.21422C14.4355 5.13198 14.5265 5.08298 14.6245 5.08298L15.2078 5.08298C15.2958 5.08298 15.3798 5.12323 15.4353 5.19205C15.4912 5.26147 15.5122 5.35186 15.493 5.4376L14.9231 7.99938L15.493 10.5612C15.4977 10.5822 15.5 10.6032 15.5 10.6242C15.5 10.6901 15.4778 10.7542 15.4358 10.8067C15.3798 10.8755 15.2958 10.9158 15.2078 10.9158L14.6245 10.9158C14.5265 10.9158 14.4349 10.8668 14.3813 10.7845L13.0339 8.74247L12.1123 8.83521C11.2169 8.92503 10.4808 8.99852 9.59832 9.05277L13.1196 14.5496C13.1779 14.6401 13.1808 14.7538 13.1301 14.8465C13.0794 14.9405 12.9814 14.9988 12.8746 14.9988L12.191 14.9988C11.8014 14.9988 11.4357 14.8478 11.1615 14.5736Z" fill="white"/>
</svg>
