<svg width="25" height="24" viewBox="0 0 25 24" fill="none" xmlns="http://www.w3.org/2000/svg">
<path d="M12.3478 8.46688L15.2108 11.3299L15.2244 11.1799C15.2244 9.67568 14.002 8.45325 12.4977 8.45325L12.3478 8.46688Z" fill="#777E97"/>
<path d="M12.1218 6.27219C14.6304 6.27219 16.6663 8.3081 16.6663 10.8166C16.6663 11.4028 16.5481 11.9618 16.3436 12.4753L19.0021 15.1338C20.3745 13.9886 21.4561 12.5071 22.1241 10.8166C20.5472 6.82664 16.6708 4 12.1219 4C10.8494 4 9.63156 4.22721 8.5 4.6362L10.4632 6.59483C10.9766 6.39489 11.5356 6.27219 12.1218 6.27219Z" fill="#777E97"/>
<path d="M3.40887 4.15882L5.48112 6.23108L5.89468 6.64463C4.39502 7.81709 3.20893 9.37584 2.5 11.1799C4.07238 15.1699 7.95329 17.9966 12.4977 17.9966C13.9065 17.9966 15.2516 17.7239 16.4832 17.2285L16.8695 17.6148L19.5189 20.2687L20.6777 19.1145L4.56769 3L3.40887 4.15882ZM8.43502 9.18041L9.83924 10.5846C9.79834 10.7801 9.77107 10.9754 9.77107 11.1799C9.77107 12.6842 10.9935 13.9066 12.4977 13.9066C12.7022 13.9066 12.8976 13.8793 13.0885 13.8384L14.4927 15.2426C13.8883 15.5426 13.2158 15.7244 12.4977 15.7244C9.9892 15.7244 7.95329 13.6885 7.95329 11.1799C7.95329 10.4619 8.13508 9.78935 8.43502 9.18041Z" fill="#777E97"/>
</svg>
