<svg width="32" height="32" viewBox="0 0 32 32" fill="none" xmlns="http://www.w3.org/2000/svg">
<path d="M31.8887 0H0.111335C0.0498465 0 0 0.0498465 0 0.111335V31.8887C0 31.9502 0.0498465 32 0.111335 32H31.8887C31.9502 32 32 31.9502 32 31.8887V0.111335C32 0.0498465 31.9502 0 31.8887 0Z" fill="#CCCED8"/>
<path d="M21.1759 17.3015L21.7939 13.2798H17.9304V10.6699C17.9304 9.56849 18.4693 8.49642 20.1975 8.49642H21.955V5.07222C20.9252 4.90532 19.8845 4.81427 18.8413 4.7998C15.6632 4.7998 13.5864 6.7272 13.5864 10.2158V13.2798H10.045V17.3015H13.5776V27.0234C15.0177 27.25 16.4844 27.25 17.9245 27.0234V17.3015H21.1759Z" fill="white" fill-opacity="0.7"/>
</svg>
