<svg width="40" height="40" viewBox="0 0 40 40" fill="none" xmlns="http://www.w3.org/2000/svg">
<rect x="9" y="9" width="22" height="22" rx="4" fill="#CCCED8"/>
<g clip-path="url(#clip0)">
<path d="M20 14.5C16.5836 14.5 13.8125 16.6539 13.8125 19.312C13.8125 21.0191 14.961 22.5179 16.6838 23.374L16.1006 25.5154C16.0913 25.5421 16.0887 25.5707 16.0929 25.5987C16.0971 25.6266 16.108 25.6532 16.1247 25.6762C16.1415 25.6991 16.1636 25.7178 16.1891 25.7307C16.2147 25.7435 16.2431 25.7501 16.2718 25.75C16.3111 25.7484 16.3489 25.7344 16.3795 25.7101L18.8857 24.0428C19.2548 24.0954 19.6271 24.1221 20 24.1227C23.4227 24.1227 26.1875 21.9701 26.1875 19.312C26.1875 16.6539 23.4164 14.5 20 14.5Z" fill="white"/>
</g>
<defs>
<clipPath id="clip0">
<rect width="12.375" height="11.25" fill="white" transform="translate(13.8125 14.5)"/>
</clipPath>
</defs>
</svg>
