<svg width="25" height="24" viewBox="0 0 25 24" fill="none" xmlns="http://www.w3.org/2000/svg">
<path d="M11.4163 16.7911C9.78242 16.7911 8.45813 15.4668 8.45813 13.8329V9.88857C8.45813 8.85911 8.98469 7.95193 9.78242 7.42241C8.98371 6.89486 8.45813 5.98767 8.45813 4.95821C8.45813 3.32429 9.78242 2 11.4163 2C13.0503 2 14.3746 3.32429 14.3746 4.95821C14.3746 5.98767 13.848 6.89486 13.0503 7.42438C13.849 7.95193 14.3746 8.85911 14.3746 9.88857V14.8179L15.7886 14.8189C16.4276 14.8189 17.0241 15.1286 17.3919 15.6433L17.4797 15.7764L20.15 20.2285L18.4599 21.2422L15.7876 16.7911L14.3746 16.7901L11.4163 16.7911ZM11.4163 8.9025C10.872 8.9025 10.4303 9.34426 10.4303 9.88857V13.8329C10.4303 14.3772 10.872 14.8189 11.4163 14.8189H12.4014L12.4024 9.88857C12.4024 9.34426 11.9607 8.9025 11.4163 8.9025ZM11.4163 3.97214C10.872 3.97214 10.4303 4.4139 10.4303 4.95821C10.4303 5.50253 10.872 5.94429 11.4163 5.94429C11.9607 5.94429 12.4024 5.50253 12.4024 4.95821C12.4024 4.4139 11.9607 3.97214 11.4163 3.97214Z" fill="#AAB0BC"/>
<path fill-rule="evenodd" clip-rule="evenodd" d="M4.5 15.9025V9H6.47214V15.9025C6.47214 17.5363 7.79658 18.8607 9.43036 18.8607H12.8816V20.8329H9.43036C6.7074 20.8329 4.5 18.6255 4.5 15.9025Z" fill="#AAB0BC"/>
</svg>
