<svg width="24" height="24" viewBox="0 0 24 24" fill="none" xmlns="http://www.w3.org/2000/svg">
<path d="M21.0118 4.45319C20.0195 3.48426 18.6486 3 16.8984 3C16.4141 3 15.9197 3.08398 15.4159 3.25186C14.9119 3.41986 14.4431 3.64651 14.0099 3.93166C13.5761 4.21672 13.2033 4.48442 12.8906 4.73435C12.5782 4.98436 12.2813 5.25005 12.0001 5.53122C11.7187 5.25005 11.4218 4.98436 11.1094 4.73435C10.7968 4.48442 10.4239 4.21689 9.99021 3.93166C9.5566 3.64639 9.08782 3.4199 8.58394 3.25186C8.0801 3.08402 7.58587 3 7.10153 3C5.35146 3 3.98044 3.48438 2.98828 4.45319C1.99612 5.42191 1.5 6.76559 1.5 8.48434C1.5 9.0078 1.59194 9.54698 1.77546 10.1015C1.95897 10.6562 2.1681 11.1289 2.40243 11.5194C2.63672 11.9099 2.90241 12.2909 3.1993 12.662C3.49618 13.0332 3.71315 13.2888 3.84971 13.4295C3.98639 13.57 4.09385 13.6717 4.17196 13.7341L11.4844 20.7889C11.6251 20.9296 11.7969 21 12 21C12.2031 21 12.3751 20.9296 12.5157 20.7891L19.8165 13.7577C21.6056 11.9688 22.5001 10.2109 22.5001 8.48434C22.5001 6.76559 22.0039 5.42191 21.0118 4.45319Z" fill="#0069E4"/>
</svg>
