<svg width="17" height="16" viewBox="0 0 17 16" fill="none" xmlns="http://www.w3.org/2000/svg">
<path d="M4.36849 9.04613C4.37754 8.96519 4.42466 8.89437 4.49444 8.85661L4.50378 8.85208C4.5253 8.84277 5.03393 8.62391 5.34562 8.57864C5.40472 8.57002 5.4669 8.58202 5.52389 8.61156L6.57066 8.99538C6.77487 8.8867 7.54913 8.47499 8.46119 7.99345L6.30513 6.81789C6.24174 6.78332 6.20483 6.72405 6.20651 6.65935C6.20815 6.5947 6.248 6.53757 6.31312 6.50654L7.03987 6.15968C7.10961 6.12641 7.22046 6.11326 7.29713 6.1302L10.6093 6.86675C11.2908 6.51277 11.8533 6.22573 12.0878 6.11844C12.26 6.0397 12.4693 6 12.7099 6C13.1069 6 13.5927 6.11809 13.6824 6.29237C13.6859 6.29904 13.9229 7.02663 12.5542 7.84089L7.44994 10.5326C7.44484 10.5351 7.32312 10.5982 7.20472 10.6197C7.00435 10.6561 6.78739 10.6667 6.56421 10.6667H6.49952C6.46858 10.6667 6.43816 10.6667 6.40827 10.6667H6.3881V10.6593C6.24371 10.6593 6.13764 10.5946 6.1206 10.5824L4.45113 9.26558L4.44718 9.26065C4.38774 9.20746 4.35954 9.12737 4.36849 9.04613ZM6.38825 10.5266H6.3882V10.5274L6.38825 10.5266Z" fill="white"/>
<path fill-rule="evenodd" clip-rule="evenodd" d="M1.92234 5.13225L1.41109 5.26924L1.16675 4.35733L3.34222 3.77441L3.92513 5.94988L3.01322 6.19423L2.89092 5.73779C2.53912 6.52717 2.34356 7.40161 2.34356 8.32262C2.34356 11.8334 5.18959 14.6794 8.70036 14.6794C9.79335 14.6794 10.8203 14.404 11.7174 13.9193L12.2559 14.9161C11.1975 15.4879 9.98599 15.8123 8.70036 15.8123C4.56391 15.8123 1.21066 12.4591 1.21066 8.32262C1.21066 7.18225 1.46587 6.10049 1.92234 5.13225Z" fill="white"/>
<path fill-rule="evenodd" clip-rule="evenodd" d="M15.2573 11.9353L15.8007 11.7897L16.045 12.7016L13.8695 13.2845L13.2866 11.109L14.1985 10.8647L14.3154 11.3009C14.7806 10.4848 15.0713 9.55254 15.1336 8.55065C15.3513 5.04664 12.6872 2.02959 9.18324 1.81187C8.09235 1.74409 7.05027 1.95524 6.12486 2.38338L5.64917 1.35519C6.74099 0.850064 7.97034 0.601425 9.2535 0.681154C13.382 0.937674 16.5208 4.49242 16.2643 8.6209C16.1892 9.83016 15.8306 10.9555 15.2573 11.9353Z" fill="white"/>
</svg>
