<svg width="24" height="24" viewBox="0 0 24 24" fill="none" xmlns="http://www.w3.org/2000/svg">
<path d="M17.5067 17.5358C17.9349 19.5011 15.8008 19.9276 14.8608 19.6717C13.9208 19.4158 12.0035 19.3732 12.0035 19.3732C12.0035 19.3732 10.0809 19.4158 9.1409 19.6717C8.2009 19.9293 6.06504 19.5011 6.4915 17.5358C6.91797 15.5705 8.79797 15.6558 9.31328 13.0064C9.82682 10.357 12.0053 10.5276 12.0053 10.5276C12.0053 10.5276 14.1785 10.357 14.6921 13.0064C15.2038 15.6558 17.0802 15.5705 17.5067 17.5358ZM13.976 10.3552C15.1327 10.6893 16.4103 9.77598 16.8315 8.31532C17.2526 6.85647 16.6573 5.40293 15.5006 5.06889C14.3438 4.73481 13.0662 5.64816 12.645 7.10881C12.2239 8.56766 12.8192 10.0212 13.976 10.3552ZM18.7701 9.82397C17.656 9.36905 16.2877 10.1403 15.7138 11.5476C15.1398 12.9549 15.577 14.4635 16.6911 14.9166C17.8052 15.3697 19.1734 14.6003 19.7474 13.193C20.3214 11.7857 19.8842 10.2789 18.7701 9.82397ZM10.0223 10.3552C11.1791 10.0212 11.7743 8.56766 11.3532 7.10881C10.9321 5.64996 9.6527 4.73661 8.49766 5.07069C7.34266 5.40473 6.74561 6.85824 7.16674 8.31712C7.58789 9.77598 8.8655 10.6893 10.0223 10.3552ZM7.30889 14.9166C8.42304 14.4617 8.86016 12.9531 8.2862 11.5476C7.71224 10.142 6.34401 9.36905 5.22988 9.82397C4.11576 10.2789 3.67864 11.7875 4.2526 13.193C4.82653 14.6003 6.19477 15.3715 7.30889 14.9166Z" fill="#AAB0BC"/>
</svg>
