<svg width="17" height="16" viewBox="0 0 17 16" fill="none" xmlns="http://www.w3.org/2000/svg">
<g clip-path="url(#clip0)">
<path d="M8.56537 14.4893C8.06033 14.4885 7.5762 14.2926 7.21908 13.9443C6.86197 13.596 6.66101 13.1239 6.66028 12.6313C6.66028 12.5236 6.70418 12.4203 6.7823 12.3441C6.86042 12.2679 6.96636 12.2251 7.07684 12.2251H10.0511C10.1616 12.2251 10.2675 12.2679 10.3456 12.3441C10.4238 12.4203 10.4677 12.5236 10.4677 12.6313C10.4677 13.1236 10.2673 13.5958 9.91066 13.9441C9.55399 14.2925 9.07014 14.4885 8.56537 14.4893ZM7.58783 13.0484C7.66934 13.2378 7.80639 13.3995 7.98178 13.5132C8.15717 13.6269 8.36308 13.6876 8.57369 13.6876C8.7843 13.6876 8.99022 13.6269 9.16561 13.5132C9.341 13.3995 9.47804 13.2378 9.55955 13.0484H7.58783Z" fill="white"/>
<path d="M12.2867 13.051H4.8441C4.48736 13.0503 4.1455 12.9116 3.89351 12.6654C3.64152 12.4191 3.5 12.0854 3.5 11.7375C3.50062 11.4605 3.59049 11.1906 3.75693 10.9661C3.92337 10.7415 4.15796 10.5737 4.42753 10.4862V7.20105C4.42709 6.5028 4.6127 5.81641 4.96613 5.20916C5.31957 4.60192 5.82872 4.09466 6.44369 3.73709C6.44369 3.68021 6.44369 3.62605 6.44369 3.57459C6.44369 3.02438 6.6678 2.4967 7.06674 2.10764C7.46567 1.71858 8.00675 1.5 8.57093 1.5C9.13511 1.5 9.67618 1.71858 10.0751 2.10764C10.474 2.4967 10.6982 3.02438 10.6982 3.57459C10.6982 3.62876 10.6982 3.68021 10.6982 3.73709C11.3133 4.09473 11.8227 4.60194 12.1766 5.20911C12.5305 5.81629 12.7167 6.50265 12.7171 7.20105V10.489C12.9867 10.5755 13.2214 10.7428 13.3879 10.9669C13.5545 11.1911 13.6443 11.4607 13.6447 11.7375C13.6432 12.085 13.5012 12.4178 13.2495 12.6638C12.9979 12.9097 12.6568 13.0489 12.3005 13.051H12.2867ZM8.56538 2.30167C8.22216 2.30167 7.89299 2.43464 7.65029 2.67132C7.4076 2.90801 7.27126 3.22902 7.27126 3.56375C7.27265 3.66401 7.28475 3.76386 7.30736 3.86168C7.32682 3.94635 7.31758 4.03491 7.28102 4.11403C7.24446 4.19315 7.18258 4.25855 7.10464 4.30042C7.07864 4.31717 7.05067 4.33082 7.02133 4.34106C6.49033 4.61539 6.0459 5.02551 5.73573 5.52744C5.42556 6.02937 5.26133 6.60417 5.26066 7.19021V10.8194C5.26066 10.9271 5.21677 11.0305 5.13865 11.1066C5.06053 11.1828 4.95457 11.2256 4.8441 11.2256C4.77676 11.2256 4.71009 11.2386 4.64792 11.2638C4.58574 11.289 4.52928 11.326 4.48179 11.3725C4.43431 11.4191 4.39672 11.4744 4.37121 11.5351C4.34569 11.5959 4.33276 11.661 4.33312 11.7267C4.33276 11.7923 4.34569 11.8574 4.37121 11.9182C4.39672 11.979 4.43431 12.0342 4.48179 12.0808C4.52928 12.1274 4.58574 12.1643 4.64792 12.1895C4.71009 12.2147 4.77676 12.2277 4.8441 12.2277H12.2867C12.4223 12.226 12.5519 12.1725 12.6477 12.0787C12.6954 12.0327 12.7332 11.9779 12.759 11.9174C12.7847 11.857 12.7979 11.7921 12.7976 11.7267C12.7976 11.5943 12.7439 11.4672 12.6481 11.3733C12.5524 11.2794 12.4224 11.2263 12.2867 11.2256C12.1762 11.2256 12.0702 11.1828 11.9921 11.1066C11.914 11.0305 11.8701 10.9271 11.8701 10.8194V7.19021C11.8698 6.60513 11.7063 6.03115 11.3971 5.52974C11.0879 5.02833 10.6447 4.61836 10.115 4.34375C10.0829 4.33259 10.0522 4.31807 10.0233 4.30042C9.94603 4.2579 9.88467 4.19239 9.84821 4.11347C9.81174 4.03454 9.80206 3.94633 9.82061 3.86168C9.844 3.76393 9.85703 3.66409 9.85949 3.56375C9.85949 3.22902 9.72315 2.90801 9.48046 2.67132C9.23777 2.43464 8.90861 2.30167 8.56538 2.30167V2.30167Z" fill="white"/>
<path d="M12.1672 8.85566C13.4556 8.85566 14.5 7.83711 14.5 6.58066C14.5 5.32422 13.4556 4.30566 12.1672 4.30566C10.8789 4.30566 9.83447 5.32422 9.83447 6.58066C9.83447 7.83711 10.8789 8.85566 12.1672 8.85566Z" fill="#EA0000"/>
</g>
<defs>
<clipPath id="clip0">
<rect width="11" height="13" fill="white" transform="translate(3.5 1.5)"/>
</clipPath>
</defs>
</svg>
