<svg width="33" height="32" viewBox="0 0 33 32" fill="none" xmlns="http://www.w3.org/2000/svg">
<path d="M32.3887 0H0.611335C0.549847 0 0.5 0.0498465 0.5 0.111335V31.8887C0.5 31.9502 0.549847 32 0.611335 32H32.3887C32.4502 32 32.5 31.9502 32.5 31.8887V0.111335C32.5 0.0498465 32.4502 0 32.3887 0Z" fill="#FDE600"/>
<path d="M16.4992 6C10.6996 6 6 9.7166 6 14.3014C6 17.2858 7.99212 19.9008 10.9814 21.3642C10.7638 22.1845 10.1861 24.3355 10.0707 24.7952C9.92876 25.3664 10.2802 25.3588 10.5103 25.2048C10.6909 25.0846 13.3881 23.2513 14.5517 22.4598C15.197 22.5554 15.8485 22.6034 16.5008 22.6034C22.3004 22.6034 27 18.8857 27 14.3014C27 9.71715 22.2988 6 16.5008 6" fill="#391B1B"/>
</svg>
