<svg width="24" height="24" viewBox="0 0 24 24" fill="none" xmlns="http://www.w3.org/2000/svg">
<path d="M9.98039 18.044C10.0185 17.5318 10.3571 17.0514 10.9307 16.6513L8.81415 14.793C8.42049 15.1213 8.10038 15.5288 7.87465 15.989C7.64892 16.4493 7.52262 16.9518 7.50398 17.4641C7.4172 18.9711 8.04583 20.004 9.43219 21.4983L10.9752 20.2834C10.1307 19.369 9.94864 18.5965 9.98039 18.044Z" fill="#AAB0BC"/>
<path d="M14.9965 13.7998V11.6833L18.055 13.3024L19.1641 11.9817C19.1641 11.9817 17.31 10.0577 16.2834 9.3021C15.1468 8.45546 13.7986 7.79297 11.9994 7.79297C10.2003 7.79297 8.8542 8.46604 7.71759 9.29786C6.68893 10.0556 4.83691 11.9796 4.83691 11.9796L5.94601 13.3003L9.00448 11.6811V13.7977L14.9965 13.7998Z" fill="#AAB0BC"/>
<path d="M15.1911 14.793L13.0746 16.6513C13.6482 17.0535 13.9868 17.534 14.0249 18.044C14.0672 18.5944 13.8746 19.369 13.0322 20.2834L14.5752 21.4983C15.9595 19.9934 16.5881 18.9711 16.5098 17.462C16.4898 16.9494 16.362 16.4469 16.1348 15.987C15.9076 15.5271 15.5861 15.1203 15.1911 14.793Z" fill="#AAB0BC"/>
<path d="M11.9996 6.90153C13.4912 6.90153 14.7004 5.69236 14.7004 4.20077C14.7004 2.70917 13.4912 1.5 11.9996 1.5C10.508 1.5 9.29883 2.70917 9.29883 4.20077C9.29883 5.69236 10.508 6.90153 11.9996 6.90153Z" fill="#AAB0BC"/>
</svg>
