<svg width="24" height="24" viewBox="0 0 24 24" fill="none" xmlns="http://www.w3.org/2000/svg">
<path d="M3.10858 10.7716C3.12679 10.6183 3.22165 10.4841 3.36215 10.4125L3.38094 10.4039C3.42425 10.3863 4.44821 9.97162 5.07569 9.88584C5.19467 9.86951 5.31986 9.89225 5.43458 9.94822L7.54189 10.6754C7.95301 10.4695 9.51172 9.68945 11.3478 8.77706L7.00734 6.54969C6.87973 6.48419 6.80541 6.37189 6.8088 6.2493C6.8121 6.1268 6.89232 6.01856 7.02342 5.95977L8.4865 5.30256C8.62689 5.23952 8.85004 5.2146 9.00439 5.24669L15.6722 6.64226C17.0443 5.97156 18.1767 5.42769 18.6489 5.22442C18.9955 5.07521 19.4168 5 19.9012 5C20.7005 5 21.6783 5.22376 21.859 5.55396C21.8661 5.56661 22.3432 6.9452 19.5878 8.488L9.31202 13.5882C9.30175 13.5929 9.05671 13.7123 8.81835 13.7531C8.41499 13.8221 7.9782 13.8421 7.52891 13.8421H7.39868C7.33638 13.8421 7.27515 13.8421 7.21498 13.8421H7.17438V13.8281C6.8837 13.8281 6.67015 13.7056 6.63585 13.6825L3.27494 11.1874L3.267 11.1781C3.14733 11.0773 3.09056 10.9255 3.10858 10.7716ZM7.17467 13.5766H7.17457V13.5781L7.17467 13.5766Z" fill="#AAB0BC"/>
<path fill-rule="evenodd" clip-rule="evenodd" d="M23 19.0367H2V17.1577H23V19.0367Z" fill="#AAB0BC"/>
</svg>
