<svg width="25" height="24" viewBox="0 0 25 24" fill="none" xmlns="http://www.w3.org/2000/svg">
<g clip-path="url(#clip0)">
<path d="M20.2989 17.5815V17.5217L19.3276 17.6653C19.1799 17.3512 18.9667 17.0762 18.704 16.8607C18.4412 16.6453 18.1356 16.4949 17.8099 16.4208L17.5329 14.0275C17.4667 13.4431 17.1979 12.9048 16.7779 12.5155C16.358 12.1263 15.8163 11.9134 15.2564 11.9175H14.1523C13.6499 11.2202 13.0006 10.655 12.2552 10.2662C12.0818 10.1749 11.9031 10.095 11.7203 10.0268L11.6747 10.0069C11.4942 9.94002 11.3106 9.88278 11.1246 9.83537H11.098C10.6968 9.73264 10.2854 9.68041 9.8725 9.67981C9.74729 9.67981 9.62588 9.67981 9.49308 9.69975H9.46652C9.34131 9.69975 9.2161 9.72368 9.0871 9.74363H9.05676C8.80027 9.7818 8.54668 9.83912 8.29793 9.91515V9.15728H14.2889C14.3993 9.15719 14.5065 9.19665 14.5927 9.26916C14.6789 9.34167 14.739 9.4429 14.7632 9.55616V9.60402H16.1822H16.2391V9.54818C16.241 9.51497 16.241 9.48167 16.2391 9.44846C16.1884 8.93999 15.9602 8.46933 15.5986 8.12749C15.237 7.78564 14.7676 7.59688 14.2813 7.59769H8.33586V5.91843C8.33586 5.40605 8.14251 4.91459 7.79823 4.55191C7.45395 4.18923 6.98686 3.98494 6.49948 3.98389H6.01763H5.93415H5.86966V5.5036H5.93415H6.01763H6.49948C6.59292 5.50939 6.68104 5.55128 6.74687 5.62123C6.81271 5.69118 6.85161 5.78424 6.85613 5.88253V10.6172C6.1973 11.098 5.64908 11.7276 5.25155 12.4599C4.85403 13.1922 4.61727 14.0087 4.5586 14.8496C4.49994 15.6905 4.62083 16.5346 4.91248 17.32C5.20412 18.1054 5.65911 18.8124 6.24416 19.3892C6.82921 19.9659 7.52952 20.3978 8.29383 20.6534C9.05815 20.9089 9.86715 20.9815 10.6616 20.866C11.4561 20.7504 12.2159 20.4496 12.8855 19.9855C13.5551 19.5215 14.1176 18.9059 14.5317 18.1838C14.5735 18.108 14.6114 18.0282 14.6494 17.9525L15.2906 17.8567C15.192 18.1196 15.1418 18.3998 15.1426 18.6824C15.1407 19.2501 15.3377 19.7987 15.6961 20.2234C16.0545 20.648 16.5491 20.9191 17.0855 20.9847C17.6219 21.0503 18.1625 20.9059 18.6041 20.5791C19.0456 20.2523 19.3572 19.7659 19.4793 19.2129L20.4203 19.0733H20.443H20.5L20.2989 17.5815ZM9.88009 11.1995C10.6614 11.1987 11.4254 11.4416 12.0755 11.8974C12.7255 12.3531 13.2323 13.0014 13.5319 13.76C13.8314 14.5187 13.9102 15.3537 13.7582 16.1594C13.6062 16.9651 13.2303 17.7054 12.6781 18.2865C12.1259 18.8676 11.4221 19.2634 10.6558 19.424C9.88955 19.5845 9.0952 19.5025 8.37326 19.1884C7.65132 18.8742 7.03424 18.342 6.60007 17.6591C6.1659 16.9762 5.93415 16.1732 5.93415 15.3518C5.93315 14.806 6.03443 14.2653 6.23219 13.7607C6.42995 13.256 6.72034 12.7972 7.08676 12.4105C7.45317 12.0238 7.88842 11.7168 8.36771 11.507C8.84699 11.2971 9.36091 11.1886 9.88009 11.1876V11.1995ZM15.1692 16.3849C15.2296 16.0495 15.2614 15.7091 15.264 15.3678C15.2616 14.7344 15.1577 14.106 14.9567 13.509C14.9521 13.4885 14.9457 13.4685 14.9377 13.4492H15.2678C15.4784 13.4503 15.6815 13.5318 15.8392 13.6785C15.997 13.8253 16.0986 14.0273 16.1253 14.2469L16.3529 16.2054L15.1692 16.3849ZM17.3432 19.516C17.2026 19.5111 17.0661 19.4652 16.9489 19.3835C16.8317 19.3017 16.7384 19.1873 16.6794 19.053C16.6205 18.9187 16.5982 18.7699 16.6151 18.6231C16.6319 18.4763 16.6873 18.3373 16.7749 18.2216C16.8626 18.1059 16.9791 18.0182 17.1115 17.9681C17.2439 17.918 17.3868 17.9076 17.5245 17.938C17.6622 17.9685 17.7891 18.0385 17.8911 18.1404C17.9931 18.2422 18.0661 18.3719 18.102 18.5149C18.0853 18.5758 18.0763 18.6389 18.0755 18.7023C18.0766 18.7658 18.0855 18.8288 18.102 18.8898C18.0598 19.0661 17.9615 19.2219 17.8235 19.3314C17.6855 19.4409 17.516 19.4976 17.3432 19.4921V19.516Z" fill="#AAB0BC"/>
</g>
<defs>
<clipPath id="clip0">
<rect width="16" height="17" fill="white" transform="translate(4.5 4)"/>
</clipPath>
</defs>
</svg>
