<svg width="16" height="16" viewBox="0 0 16 16" fill="none" xmlns="http://www.w3.org/2000/svg">
<path d="M12.945 3.50333C12.4825 2.95588 11.9372 2.47909 11.3255 2.09154C10.1984 1.37746 8.89439 1 7.55447 1C5.67015 1 3.89861 1.73379 2.5662 3.0662C1.23379 4.39861 0.5 6.17015 0.5 8.05444C0.5 9.93873 1.23379 11.7103 2.5662 13.0427C3.89861 14.3751 5.67015 15.1089 7.55447 15.1089C9.00225 15.1089 10.3937 14.6733 11.5784 13.8494C12.7351 13.0448 13.6165 11.9282 14.1274 10.6204L12.5234 9.99381C11.7183 12.055 9.76778 13.3868 7.55441 13.3868C4.61408 13.3868 2.22193 10.9947 2.22193 8.05438C2.22193 5.11402 4.61411 2.72194 7.55444 2.72194C9.04274 2.72194 10.419 3.32662 11.4074 4.36314L9.53316 5.41133L11.9776 6.86757L14.4221 8.32391L14.461 5.47882L14.5 2.63372L12.945 3.50333Z" fill="white"/>
</svg>
