<svg width="33" height="32" viewBox="0 0 33 32" fill="none" xmlns="http://www.w3.org/2000/svg">
<path fill-rule="evenodd" clip-rule="evenodd" d="M30.0001 16.3148C30.0012 15.3699 29.9174 14.4268 29.7497 13.4968H16.7754V18.8241H24.1876C24.0338 19.6658 23.7109 20.4677 23.2387 21.1813C22.7664 21.8948 22.1544 22.5053 21.4396 22.9758V26.4322H25.8898C28.4938 24.0345 29.9962 20.5029 29.9962 16.3122L30.0001 16.3148Z" fill="#3E82F1"/>
<path fill-rule="evenodd" clip-rule="evenodd" d="M16.7683 29.773C20.4868 29.773 23.6045 28.5404 25.8828 26.4373L21.4326 22.9809C20.1987 23.8074 18.6211 24.2965 16.7683 24.2965C13.181 24.2965 10.145 21.8729 9.06292 18.6177H4.46094V22.1869C5.60732 24.4681 7.36542 26.3857 9.53881 27.7253C11.7122 29.065 14.2153 29.7739 16.7683 29.773Z" fill="#32A753"/>
<path fill-rule="evenodd" clip-rule="evenodd" d="M9.06669 18.6179C8.49064 16.9213 8.49064 15.082 9.06669 13.3854V9.81616H4.46471C3.50155 11.7358 3 13.8539 3 16.0016C3 18.1494 3.50155 20.2675 4.46471 22.1871L9.06669 18.6179Z" fill="#F9BB00"/>
<path fill-rule="evenodd" clip-rule="evenodd" d="M16.7697 7.70642C18.7923 7.70642 20.6074 8.40184 22.0346 9.76673L25.984 5.81607C23.5993 3.59358 20.4816 2.22998 16.7722 2.22998C14.2192 2.22903 11.7161 2.93798 9.54272 4.27761C7.36933 5.61725 5.61123 7.5348 4.46484 9.81604L9.06682 13.3853C10.1489 10.13 13.1849 7.70642 16.7722 7.70642H16.7697Z" fill="#E74133"/>
</svg>
