<svg width="41" height="40" viewBox="0 0 41 40" fill="none" xmlns="http://www.w3.org/2000/svg">
<rect x="10.5" y="10" width="20" height="20" rx="4" fill="white"/>
<g clip-path="url(#clip0_6079:73777)">
<path d="M20.5 15C17.3942 15 14.875 16.9581 14.875 19.3745C14.875 20.9265 15.9191 22.289 17.4852 23.0672L16.9551 25.014C16.9467 25.0383 16.9442 25.0643 16.9481 25.0897C16.9519 25.1151 16.9618 25.1393 16.977 25.1601C16.9923 25.181 17.0123 25.198 17.0356 25.2097C17.0588 25.2214 17.0846 25.2274 17.1107 25.2273C17.1465 25.2258 17.1808 25.2131 17.2087 25.191L19.487 23.6753C19.8225 23.7231 20.161 23.7474 20.5 23.7479C23.6116 23.7479 26.125 21.791 26.125 19.3745C26.125 16.9581 23.6058 15 20.5 15Z" fill="#0069E4"/>
</g>
<defs>
<clipPath id="clip0_6079:73777">
<rect width="11.25" height="10.2273" fill="white" transform="translate(14.875 15)"/>
</clipPath>
</defs>
</svg>
