<svg width="16" height="16" viewBox="0 0 16 16" fill="none" xmlns="http://www.w3.org/2000/svg">
<path d="M13.35 11.4H12.7V6.19999C12.7 3.33285 10.3671 1 7.5 1C4.63286 1 2.30001 3.33285 2.30001 6.19999V11.4H1.65001C1.29055 11.4 1 11.6905 1 12.05C1 12.4094 1.29055 12.7 1.65001 12.7H2.30001H4.90001C4.90001 14.1339 6.06609 15.3 7.5 15.3C8.93391 15.3 10.1 14.1339 10.1 12.7H12.7H13.35C13.7094 12.7 14 12.4094 14 12.05C14 11.6905 13.7094 11.4 13.35 11.4ZM7.5 14C6.78305 14 6.20002 13.4169 6.20002 12.7H8.80001C8.79998 13.4169 8.21695 14 7.5 14ZM11.4 11.4H10.1H4.90001H3.60002V6.19999C3.60002 4.04916 5.34917 2.30001 7.5 2.30001C9.65083 2.30001 11.4 4.04916 11.4 6.19999V11.4V11.4Z" fill="#555E70"/>
</svg>
