<svg width="40" height="40" viewBox="0 0 40 40" fill="none" xmlns="http://www.w3.org/2000/svg">
<path fill-rule="evenodd" clip-rule="evenodd" d="M25.4379 16.4627C25.4379 21.4196 21.4196 25.4379 16.4627 25.4379C11.5059 25.4379 7.48758 21.4196 7.48758 16.4627C7.48758 11.5059 11.5059 7.48758 16.4627 7.48758C21.4196 7.48758 25.4379 11.5059 25.4379 16.4627ZM24.316 27.3989C22.1056 28.989 19.3935 29.9255 16.4627 29.9255C9.02748 29.9255 3 23.898 3 16.4627C3 9.02748 9.02748 3 16.4627 3C23.898 3 29.9255 9.02748 29.9255 16.4627C29.9255 19.3471 29.0184 22.0196 27.474 24.2105L35.5903 32.3268L32.4171 35.5L24.316 27.3989Z" fill="#111D2D"/>
</svg>
