<svg width="16" height="16" viewBox="0 0 16 16" fill="none" xmlns="http://www.w3.org/2000/svg">
<path d="M3.02898 3.11654C3.11373 3.04979 3.22687 3.03036 3.33161 3.06442L3.34513 3.06946C3.37525 3.08214 4.08588 3.38311 4.4382 3.65068C4.50504 3.70139 4.55565 3.77447 4.58467 3.85878L5.26638 5.25894C5.57117 5.3603 6.72645 5.74492 8.08412 6.2012L7.04031 2.95691C7.00963 2.86153 7.02839 2.76934 7.09062 2.71046C7.15276 2.65158 7.24586 2.63774 7.33965 2.67346L8.387 3.07153C8.48749 3.10974 8.61002 3.20766 8.67042 3.29975L11.2747 7.28279C12.2838 7.62926 13.1118 7.91996 13.4454 8.05278C13.6904 8.15028 13.9357 8.32127 14.1749 8.56053C14.5697 8.95534 14.9422 9.54889 14.8684 9.80126C14.8656 9.811 14.4203 10.7276 12.2971 10.1286L4.70199 7.57209C4.69459 7.56935 4.51453 7.50733 4.37665 7.40973C4.14333 7.24456 3.91768 7.03868 3.69575 6.81675L3.63143 6.75242C3.60065 6.72165 3.5704 6.6914 3.54068 6.66168L3.52063 6.64162L3.52752 6.63472C3.38394 6.49114 3.33896 6.32514 3.33344 6.29678L2.90576 3.40412L2.90645 3.39558C2.89713 3.28668 2.94404 3.18367 3.02898 3.11654ZM3.6519 6.51063L3.65185 6.51058L3.65111 6.51133L3.6519 6.51063Z" fill="white"/>
<path fill-rule="evenodd" clip-rule="evenodd" d="M15.67 13.3057C15.67 13.5819 15.4461 13.8057 15.17 13.8057H1.5C1.22386 13.8057 1 13.5819 1 13.3057V12.9932C1 12.717 1.22386 12.4932 1.5 12.4932H15.17C15.4461 12.4932 15.67 12.717 15.67 12.9932V13.3057Z" fill="white"/>
</svg>
