<svg width="16" height="16" viewBox="0 0 16 16" fill="none" xmlns="http://www.w3.org/2000/svg">
<path d="M14 1V15H12.6667V10.1H10V5.2C10 4.08609 10.4214 3.0178 11.1716 2.23015C11.9217 1.4425 12.9391 1 14 1ZM12.6667 2.771C12.1133 3.1 11.3333 3.919 11.3333 5.2V8.7H12.6667V2.771ZM6 9.33V15H4.66667V9.33C3.91387 9.16838 3.23733 8.73876 2.75143 8.11377C2.26553 7.48879 2.00009 6.70679 2 5.9V1.7H3.33333V6.6H4H4.66667V1.7H6V6.6H7.33333V1.7H8.66667V5.9C8.66657 6.70679 8.40114 7.48879 7.91524 8.11377C7.42934 8.73876 6.75279 9.16838 6 9.33Z" fill="#777E97"/>
</svg>
