<svg width="16" height="16" viewBox="0 0 16 16" fill="none" xmlns="http://www.w3.org/2000/svg">
<path d="M3.02898 3.11618C3.11373 3.04942 3.22687 3.02999 3.33161 3.06406L3.34513 3.0691C3.37525 3.08178 4.08588 3.38274 4.4382 3.65032C4.50504 3.70103 4.55565 3.7741 4.58467 3.85841L5.26638 5.25858C5.57117 5.35993 6.72645 5.74455 8.08412 6.20084L7.04031 2.95654C7.00963 2.86116 7.02839 2.76898 7.09062 2.7101C7.15276 2.65121 7.24586 2.63737 7.33965 2.67309L8.387 3.07116C8.48749 3.10937 8.61002 3.20729 8.67042 3.29938L11.2747 7.28243C12.2838 7.62889 13.1118 7.9196 13.4454 8.05241C13.6904 8.14991 13.9357 8.32091 14.1749 8.56017C14.5697 8.95498 14.9422 9.54852 14.8684 9.80089C14.8656 9.81064 14.4203 10.7273 12.2971 10.1283L4.70199 7.57173C4.69459 7.56899 4.51453 7.50696 4.37665 7.40936C4.14333 7.24419 3.91768 7.03831 3.69575 6.81638L3.63143 6.75205C3.60065 6.72128 3.5704 6.69103 3.54068 6.66131L3.52063 6.64125L3.52752 6.63436C3.38394 6.49077 3.33896 6.32478 3.33344 6.29641L2.90576 3.40375L2.90645 3.39521C2.89713 3.28631 2.94404 3.18331 3.02898 3.11618ZM3.6519 6.51027L3.65185 6.51022L3.65111 6.51096L3.6519 6.51027Z" fill="#AAB0BC"/>
<path fill-rule="evenodd" clip-rule="evenodd" d="M15.67 13.3053C15.67 13.5814 15.4461 13.8053 15.17 13.8053H1.5C1.22386 13.8053 1 13.5814 1 13.3053V12.9927C1 12.7165 1.22386 12.4927 1.5 12.4927H15.17C15.4461 12.4927 15.67 12.7165 15.67 12.9927V13.3053Z" fill="#AAB0BC"/>
</svg>
