<svg width="25" height="24" viewBox="0 0 25 24" fill="none" xmlns="http://www.w3.org/2000/svg">
<path d="M12.5 18.3638C12.678 18.3638 12.852 18.3104 13 18.2106C13.148 18.1107 13.2634 17.9687 13.3315 17.8026C13.3996 17.6364 13.4174 17.4537 13.3827 17.2773C13.348 17.101 13.2623 16.939 13.1364 16.8118C13.0105 16.6847 12.8502 16.5981 12.6756 16.563C12.501 16.528 12.32 16.546 12.1556 16.6148C11.9911 16.6836 11.8506 16.8001 11.7517 16.9496C11.6528 17.0991 11.6 17.2749 11.6 17.4547C11.6 17.6958 11.6948 17.927 11.8636 18.0975C12.0324 18.268 12.2613 18.3638 12.5 18.3638ZM17 18.3638C17.178 18.3638 17.352 18.3104 17.5 18.2106C17.648 18.1107 17.7634 17.9687 17.8315 17.8026C17.8996 17.6364 17.9174 17.4537 17.8827 17.2773C17.848 17.101 17.7623 16.939 17.6364 16.8118C17.5105 16.6847 17.3502 16.5981 17.1756 16.563C17.001 16.528 16.82 16.546 16.6556 16.6148C16.4911 16.6836 16.3506 16.8001 16.2517 16.9496C16.1528 17.0991 16.1 17.2749 16.1 17.4547C16.1 17.6958 16.1948 17.927 16.3636 18.0975C16.5324 18.268 16.7613 18.3638 17 18.3638ZM17 14.7274C17.178 14.7274 17.352 14.6741 17.5 14.5742C17.648 14.4743 17.7634 14.3323 17.8315 14.1662C17.8996 14.0001 17.9174 13.8173 17.8827 13.6409C17.848 13.4646 17.7623 13.3026 17.6364 13.1755C17.5105 13.0483 17.3502 12.9618 17.1756 12.9267C17.001 12.8916 16.82 12.9096 16.6556 12.9784C16.4911 13.0472 16.3506 13.1637 16.2517 13.3132C16.1528 13.4627 16.1 13.6385 16.1 13.8183C16.1 14.0594 16.1948 14.2906 16.3636 14.4611C16.5324 14.6316 16.7613 14.7274 17 14.7274ZM12.5 14.7274C12.678 14.7274 12.852 14.6741 13 14.5742C13.148 14.4743 13.2634 14.3323 13.3315 14.1662C13.3996 14.0001 13.4174 13.8173 13.3827 13.6409C13.348 13.4646 13.2623 13.3026 13.1364 13.1755C13.0105 13.0483 12.8502 12.9618 12.6756 12.9267C12.501 12.8916 12.32 12.9096 12.1556 12.9784C11.9911 13.0472 11.8506 13.1637 11.7517 13.3132C11.6528 13.4627 11.6 13.6385 11.6 13.8183C11.6 14.0594 11.6948 14.2906 11.8636 14.4611C12.0324 14.6316 12.2613 14.7274 12.5 14.7274ZM18.8 3.8183H17.9V2.90921C17.9 2.66811 17.8052 2.43688 17.6364 2.26639C17.4676 2.0959 17.2387 2.00012 17 2.00012C16.7613 2.00012 16.5324 2.0959 16.3636 2.26639C16.1948 2.43688 16.1 2.66811 16.1 2.90921V3.8183H8.9V2.90921C8.9 2.66811 8.80518 2.43688 8.6364 2.26639C8.46761 2.0959 8.23869 2.00012 8 2.00012C7.76131 2.00012 7.53239 2.0959 7.3636 2.26639C7.19482 2.43688 7.1 2.66811 7.1 2.90921V3.8183H6.2C5.48392 3.8183 4.79716 4.10564 4.29081 4.6171C3.78446 5.12857 3.5 5.82226 3.5 6.54558V19.2729C3.5 19.9962 3.78446 20.6899 4.29081 21.2013C4.79716 21.7128 5.48392 22.0001 6.2 22.0001H18.8C19.5161 22.0001 20.2028 21.7128 20.7092 21.2013C21.2155 20.6899 21.5 19.9962 21.5 19.2729V6.54558C21.5 5.82226 21.2155 5.12857 20.7092 4.6171C20.2028 4.10564 19.5161 3.8183 18.8 3.8183ZM19.7 19.2729C19.7 19.514 19.6052 19.7452 19.4364 19.9157C19.2676 20.0862 19.0387 20.1819 18.8 20.1819H6.2C5.9613 20.1819 5.73239 20.0862 5.5636 19.9157C5.39482 19.7452 5.3 19.514 5.3 19.2729V11.091H19.7V19.2729ZM19.7 9.27285H5.3V6.54558C5.3 6.30447 5.39482 6.07324 5.5636 5.90275C5.73239 5.73227 5.9613 5.63649 6.2 5.63649H7.1V6.54558C7.1 6.78668 7.19482 7.01791 7.3636 7.1884C7.53239 7.35889 7.76131 7.45467 8 7.45467C8.23869 7.45467 8.46761 7.35889 8.6364 7.1884C8.80518 7.01791 8.9 6.78668 8.9 6.54558V5.63649H16.1V6.54558C16.1 6.78668 16.1948 7.01791 16.3636 7.1884C16.5324 7.35889 16.7613 7.45467 17 7.45467C17.2387 7.45467 17.4676 7.35889 17.6364 7.1884C17.8052 7.01791 17.9 6.78668 17.9 6.54558V5.63649H18.8C19.0387 5.63649 19.2676 5.73227 19.4364 5.90275C19.6052 6.07324 19.7 6.30447 19.7 6.54558V9.27285ZM8 14.7274C8.178 14.7274 8.35201 14.6741 8.50001 14.5742C8.64802 14.4743 8.76337 14.3323 8.83149 14.1662C8.89961 14.0001 8.91743 13.8173 8.88271 13.6409C8.84798 13.4646 8.76226 13.3026 8.6364 13.1755C8.51053 13.0483 8.35016 12.9618 8.17558 12.9267C8.001 12.8916 7.82004 12.9096 7.65558 12.9784C7.49113 13.0472 7.35057 13.1637 7.25168 13.3132C7.15278 13.4627 7.1 13.6385 7.1 13.8183C7.1 14.0594 7.19482 14.2906 7.3636 14.4611C7.53239 14.6316 7.76131 14.7274 8 14.7274ZM8 18.3638C8.178 18.3638 8.35201 18.3104 8.50001 18.2106C8.64802 18.1107 8.76337 17.9687 8.83149 17.8026C8.89961 17.6364 8.91743 17.4537 8.88271 17.2773C8.84798 17.101 8.76226 16.939 8.6364 16.8118C8.51053 16.6847 8.35016 16.5981 8.17558 16.563C8.001 16.528 7.82004 16.546 7.65558 16.6148C7.49113 16.6836 7.35057 16.8001 7.25168 16.9496C7.15278 17.0991 7.1 17.2749 7.1 17.4547C7.1 17.6958 7.19482 17.927 7.3636 18.0975C7.53239 18.268 7.76131 18.3638 8 18.3638Z" fill="#AAB0BC"/>
</svg>
