<svg width="24" height="24" viewBox="0 0 24 24" fill="none" xmlns="http://www.w3.org/2000/svg">
<path d="M15.2897 5.84704C16.0759 5.84704 16.7133 5.20971 16.7133 4.42352C16.7133 3.63733 16.0759 3 15.2897 3C14.5035 3 13.8662 3.63733 13.8662 4.42352C13.8662 5.20971 14.5035 5.84704 15.2897 5.84704Z" fill="#AAB0BC"/>
<path d="M18.6104 15.4229C18.6104 13.0214 18.1198 11.5979 16.7113 10.2011V7.99887C16.7113 7.98547 16.7113 7.97207 16.7113 7.95868C16.7113 7.58113 16.5613 7.21906 16.2944 6.9521C16.0274 6.68513 15.6653 6.53516 15.2878 6.53516C14.9102 6.53516 14.5482 6.68513 14.2812 6.9521C14.0142 7.21906 13.8643 7.58113 13.8643 7.95868V10.2028C12.4391 11.5979 11.9668 13.0231 11.9668 15.4229H14.3365V20.0837H16.2374V15.4229H18.6104Z" fill="#AAB0BC"/>
<path d="M7.6159 5.84704C8.40209 5.84704 9.03942 5.20971 9.03942 4.42352C9.03942 3.63733 8.40209 3 7.6159 3C6.82971 3 6.19238 3.63733 6.19238 4.42352C6.19238 5.20971 6.82971 5.84704 7.6159 5.84704Z" fill="#AAB0BC"/>
<path d="M6.42352 6.53516C6.04598 6.53516 5.6839 6.68513 5.41694 6.9521C5.14998 7.21906 5 7.58113 5 7.95868V14.4801H5.9546V20.0904H7.37812V14.4801H7.85206V20.0904H9.27056V14.4801H10.2201V7.95868C10.2201 7.77174 10.1833 7.58663 10.1118 7.41392C10.0402 7.24121 9.93538 7.08428 9.80319 6.9521C9.67101 6.81991 9.51408 6.71505 9.34137 6.64352C9.16866 6.57198 8.98355 6.53516 8.79661 6.53516H6.42352Z" fill="#AAB0BC"/>
</svg>
