<svg width="17" height="16" viewBox="0 0 17 16" fill="none" xmlns="http://www.w3.org/2000/svg">
<g clip-path="url(#clip0)">
<path d="M2.27445 8.03188C2.28717 7.92475 2.35344 7.83101 2.45158 7.78104L2.46471 7.77504C2.49497 7.76271 3.21028 7.47303 3.64861 7.41311C3.73173 7.4017 3.81918 7.41759 3.89933 7.45668L5.37143 7.96471C5.65863 7.82086 6.7475 7.27591 8.03015 6.63854L4.99801 5.08257C4.90887 5.03681 4.85695 4.95836 4.85932 4.87272C4.86162 4.78715 4.91767 4.71154 5.00924 4.67046L6.03131 4.21136C6.12939 4.16732 6.28527 4.14992 6.39309 4.17233L11.0511 5.14724C12.0096 4.67871 12.8006 4.29878 13.1305 4.15677C13.3726 4.05254 13.6669 4 14.0053 4C14.5636 4 15.2467 4.15631 15.373 4.38698C15.3779 4.39582 15.7112 5.35886 13.7863 6.43661L6.60799 9.99944C6.60082 10.0027 6.42964 10.0862 6.26313 10.1147C5.98136 10.1629 5.67623 10.1768 5.36236 10.1768H5.27139C5.22787 10.1768 5.18509 10.1768 5.14306 10.1768H5.1147V10.1671C4.91164 10.1671 4.76246 10.0815 4.7385 10.0654L2.39066 8.32235L2.38511 8.31583C2.30152 8.24542 2.26186 8.13941 2.27445 8.03188ZM5.1149 9.99139H5.11484V9.99245L5.1149 9.99139Z" fill="white"/>
<path fill-rule="evenodd" clip-rule="evenodd" d="M16.17 13.3057C16.17 13.5819 15.9461 13.8057 15.67 13.8057H2C1.72386 13.8057 1.5 13.5819 1.5 13.3057V12.9932C1.5 12.717 1.72386 12.4932 2 12.4932H15.67C15.9461 12.4932 16.17 12.717 16.17 12.9932V13.3057Z" fill="white"/>
</g>
<defs>
<clipPath id="clip0">
<rect width="16" height="16" fill="white" transform="translate(0.5)"/>
</clipPath>
</defs>
</svg>
