<svg width="16" height="16" viewBox="0 0 16 16" fill="none" xmlns="http://www.w3.org/2000/svg">
<path d="M4.28077 12.8817C4.85339 12.8817 5.31812 13.3562 5.31812 13.9408C5.31812 14.5255 4.85339 15 4.28077 15C3.70816 15 3.24343 14.5255 3.24343 13.9408C3.24343 13.3562 3.70816 12.8817 4.28077 12.8817ZM13.2711 12.8817C13.8437 12.8817 14.3084 13.3562 14.3084 13.9408C14.3084 14.5255 13.8437 15 13.2711 15C12.6985 15 12.2337 14.5255 12.2337 13.9408C12.2337 13.3562 12.6985 12.8817 13.2711 12.8817ZM1.97925 0L4.62586 2.70301V10.7633H14.3084V12.1755H3.93499C3.55325 12.1755 3.24343 11.8592 3.24343 11.4694V3.28767L1 0.999153L1.97856 0H1.97925ZM11.5422 0.877701C11.9239 0.877701 12.2337 1.19404 12.2337 1.58382V2.99605H14.3036C14.6888 2.99605 15 3.31803 15 3.69863V9.35461C15 9.74297 14.6888 10.0572 14.3036 10.0572H6.01452C5.62932 10.0572 5.31812 9.73521 5.31812 9.35461V3.69863C5.31812 3.31027 5.62932 2.99605 6.01452 2.99605H8.08368L8.08437 1.58382C8.08437 1.19404 8.39419 0.877701 8.77593 0.877701H11.5422ZM7.39281 4.40828H6.70125V8.64497H7.39281V4.40828ZM11.5422 4.40828H8.77593V8.64497H11.5422V4.40828ZM13.6169 4.40828H12.9253V8.64497H13.6169V4.40828ZM10.8506 2.28993H9.4675V2.99605H10.8506V2.28993Z" fill="#AAB0BC"/>
</svg>
