<svg width="25" height="24" viewBox="0 0 25 24" fill="none" xmlns="http://www.w3.org/2000/svg">
<path d="M7.16708 12.9068C7.17886 12.8015 7.24019 12.7093 7.33103 12.6601L7.34318 12.6542C7.37118 12.6421 8.03323 12.3572 8.43894 12.2983C8.51587 12.2871 8.59681 12.3027 8.67098 12.3412L10.0335 12.8408C10.2993 12.6993 11.3071 12.1634 12.4942 11.5366L9.68786 10.0065C9.60536 9.96149 9.55731 9.88434 9.5595 9.80012C9.56163 9.71597 9.6135 9.64161 9.69826 9.60122L10.6442 9.14974C10.735 9.10644 10.8793 9.08932 10.9791 9.11136L15.2902 10.0701C16.1774 9.60933 16.9095 9.23571 17.2148 9.09606C17.4389 8.99356 17.7113 8.94189 18.0245 8.94189C18.5413 8.94189 19.1735 9.09561 19.2904 9.32245C19.2949 9.33114 19.6034 10.2782 17.8219 11.338L11.178 14.8417C11.1713 14.8449 11.0129 14.927 10.8588 14.955C10.598 15.0024 10.3156 15.0162 10.0251 15.0162H9.94089C9.90061 15.0162 9.86102 15.0162 9.82211 15.0162H9.79586V15.0066C9.60792 15.0066 9.46985 14.9224 9.44767 14.9065L7.27465 13.1925L7.26951 13.186C7.19214 13.1168 7.15543 13.0126 7.16708 12.9068ZM9.79605 14.8338H9.79599V14.8348L9.79605 14.8338Z" fill="#AAB0BC"/>
<path fill-rule="evenodd" clip-rule="evenodd" d="M3.98336 7.81236L3.31805 7.99063L3 6.80366L5.83165 6.04492L6.59039 8.87657L5.40342 9.19462L5.24418 8.60033C4.78621 9.62786 4.53164 10.7661 4.53164 11.965C4.53164 16.5347 8.23611 20.2392 12.8058 20.2392C14.2285 20.2392 15.5652 19.8807 16.7329 19.2498L17.4339 20.5472C16.0562 21.2915 14.4792 21.7138 12.8058 21.7138C7.42171 21.7138 3.05703 17.3491 3.05703 11.965C3.05703 10.4807 3.38921 9.07264 3.98336 7.81236Z" fill="#AAB0BC"/>
<path fill-rule="evenodd" clip-rule="evenodd" d="M21.3402 16.6677L22.0473 16.4782L22.3654 17.6652L19.5337 18.4239L18.775 15.5923L19.962 15.2742L20.1141 15.8421C20.7197 14.7799 21.0981 13.5664 21.1792 12.2622C21.4625 7.7013 17.9949 3.77422 13.434 3.49084C12.0141 3.40261 10.6577 3.67746 9.45315 4.23473L8.83398 2.89641C10.2551 2.23893 11.8553 1.91529 13.5255 2.01907C18.8992 2.35296 22.9848 6.97992 22.6509 12.3537C22.5531 13.9277 22.0864 15.3924 21.3402 16.6677Z" fill="#AAB0BC"/>
</svg>
