<svg width="17" height="16" viewBox="0 0 17 16" fill="none" xmlns="http://www.w3.org/2000/svg">
<g clip-path="url(#clip0)">
<path d="M8.49999 2C7.31386 2 6.15435 2.35158 5.16794 3.01029C4.18153 3.669 3.41248 4.6053 2.95797 5.70089C2.50346 6.79649 2.38389 8.00221 2.61434 9.16574C2.84479 10.3293 3.41494 11.3984 4.25275 12.238C5.09055 13.0777 6.15843 13.6501 7.32145 13.8831C8.48447 14.1161 9.69047 13.9991 10.787 13.547C11.8836 13.0949 12.8216 12.3279 13.4825 11.3429C14.1433 10.358 14.4974 9.1992 14.5 8.01307C14.5 6.42057 13.8683 4.8931 12.7434 3.76581C11.6186 2.63851 10.0925 2.00346 8.49999 2V2ZM13.4673 8.01307C13.4647 8.99495 13.1712 9.95405 12.6238 10.7692C12.0764 11.5843 11.2997 12.219 10.3919 12.5929C9.48398 12.9669 8.48562 13.0634 7.52292 12.8703C6.56022 12.6771 5.67635 12.203 4.98297 11.5078C4.28958 10.8126 3.8178 9.92749 3.62719 8.96428C3.43658 8.00107 3.5357 7.00298 3.91205 6.09608C4.2884 5.18918 4.92507 4.41417 5.74165 3.86893C6.55824 3.32369 7.51811 3.03269 8.49999 3.03268C9.81819 3.03406 11.0822 3.55742 12.0155 4.4883C12.9489 5.41919 13.4755 6.68181 13.4804 8L13.4673 8.01307Z" fill="white"/>
<path d="M9.06202 6.47314H8.03979V11.213H9.06202V6.47314Z" fill="white"/>
<path d="M9.06202 4.92822H8.03979V5.90339H9.06202V4.92822Z" fill="white"/>
</g>
<defs>
<clipPath id="clip0">
<rect width="12" height="12" fill="white" transform="translate(2.5 2)"/>
</clipPath>
</defs>
</svg>
