<svg width="24" height="24" viewBox="0 0 24 24" fill="none" xmlns="http://www.w3.org/2000/svg">
<rect x="3.00781" y="3" width="17" height="17" rx="2" fill="#AAB0BC"/>
<path d="M13.4428 9.99C13.2781 9.68667 13.0398 9.457 12.7278 9.301C12.4245 9.13633 12.0648 9.054 11.6488 9.054C10.9295 9.054 10.3531 9.29233 9.91981 9.769C9.48648 10.237 9.26981 10.8653 9.26981 11.654C9.26981 12.4947 9.49515 13.1533 9.94581 13.63C10.4051 14.098 11.0335 14.332 11.8308 14.332C12.3768 14.332 12.8361 14.1933 13.2088 13.916C13.5901 13.6387 13.8675 13.24 14.0408 12.72H11.2198V11.082H16.0558V13.149C15.8911 13.7037 15.6095 14.2193 15.2108 14.696C14.8208 15.1727 14.3225 15.5583 13.7158 15.853C13.1091 16.1477 12.4245 16.295 11.6618 16.295C10.7605 16.295 9.95448 16.1 9.24381 15.71C8.54181 15.3113 7.99148 14.761 7.59281 14.059C7.20281 13.357 7.00781 12.5553 7.00781 11.654C7.00781 10.7527 7.20281 9.951 7.59281 9.249C7.99148 8.53833 8.54181 7.988 9.24381 7.598C9.94581 7.19933 10.7475 7 11.6488 7C12.7408 7 13.6595 7.26433 14.4048 7.793C15.1588 8.32167 15.6571 9.054 15.8998 9.99H13.4428Z" fill="white"/>
</svg>
