<svg width="25" height="24" viewBox="0 0 25 24" fill="none" xmlns="http://www.w3.org/2000/svg">
<path d="M20.2786 5.57618C19.6179 4.79411 18.8389 4.11299 17.9649 3.55934C16.3549 2.53922 14.492 2 12.5778 2C9.88592 2 7.35516 3.04827 5.45171 4.95171C3.54827 6.85515 2.5 9.38592 2.5 12.0778C2.5 14.7696 3.54827 17.3005 5.45171 19.2039C7.35516 21.1073 9.88592 22.1555 12.5778 22.1555C14.6461 22.1555 16.6338 21.5334 18.3262 20.3562C19.9786 19.2069 21.2379 17.6118 21.9677 15.7435L19.6763 14.8483C18.5261 17.7928 15.7397 19.6955 12.5777 19.6955C8.37725 19.6955 4.95991 16.2782 4.95991 12.0777C4.95991 7.87716 8.3773 4.45991 12.5778 4.45991C14.7039 4.45991 16.6699 5.32374 18.082 6.80448L15.4045 8.30189L18.8966 10.3822L22.3887 12.4627L22.4443 8.39831L22.5 4.33389L20.2786 5.57618Z" fill="white"/>
</svg>
