<svg width="78" height="16" viewBox="0 0 78 16" fill="none" xmlns="http://www.w3.org/2000/svg">
<rect y="7" width="3" height="2" fill="#CCCED8"/>
<rect x="6" y="7" width="3" height="2" fill="#CCCED8"/>
<rect x="12" y="7" width="3" height="2" fill="#CCCED8"/>
<rect x="18" y="7" width="3" height="2" fill="#CCCED8"/>
<rect x="24" y="7" width="3" height="2" fill="#CCCED8"/>
<path d="M32.7744 8.03188C32.7872 7.92475 32.8534 7.83101 32.9516 7.78104L32.9647 7.77504C32.995 7.76271 33.7103 7.47303 34.1486 7.41311C34.2317 7.4017 34.3192 7.41759 34.3993 7.45668L35.8714 7.96471C36.1586 7.82086 37.2475 7.27591 38.5302 6.63854L35.498 5.08257C35.4089 5.03681 35.357 4.95836 35.3593 4.87272C35.3616 4.78715 35.4177 4.71154 35.5092 4.67046L36.5313 4.21136C36.6294 4.16732 36.7853 4.14992 36.8931 4.17233L41.5511 5.14724C42.5096 4.67871 43.3006 4.29878 43.6305 4.15677C43.8726 4.05254 44.1669 4 44.5053 4C45.0636 4 45.7467 4.15631 45.873 4.38698C45.8779 4.39582 46.2112 5.35886 44.2863 6.43661L37.108 9.99944C37.1008 10.0027 36.9296 10.0862 36.7631 10.1147C36.4814 10.1629 36.1762 10.1768 35.8624 10.1768H35.7714C35.7279 10.1768 35.6851 10.1768 35.6431 10.1768H35.6147V10.1671C35.4116 10.1671 35.2625 10.0815 35.2385 10.0654L32.8907 8.32235L32.8851 8.31583C32.8015 8.24542 32.7619 8.13941 32.7744 8.03188ZM35.6149 9.99139H35.6148V9.99245L35.6149 9.99139Z" fill="#AAB0BC"/>
<path fill-rule="evenodd" clip-rule="evenodd" d="M46.67 13.3057C46.67 13.5819 46.4461 13.8057 46.17 13.8057H32.5C32.2239 13.8057 32 13.5819 32 13.3057V12.9932C32 12.717 32.2239 12.4932 32.5 12.4932H46.17C46.4461 12.4932 46.67 12.717 46.67 12.9932V13.3057Z" fill="#AAB0BC"/>
<rect x="51" y="7" width="3" height="2" fill="#CCCED8"/>
<rect x="57" y="7" width="3" height="2" fill="#CCCED8"/>
<rect x="63" y="7" width="3" height="2" fill="#CCCED8"/>
<rect x="69" y="7" width="3" height="2" fill="#CCCED8"/>
<rect x="75" y="7" width="3" height="2" fill="#CCCED8"/>
</svg>
