<svg width="16" height="16" viewBox="0 0 16 16" fill="none" xmlns="http://www.w3.org/2000/svg">
<path fill-rule="evenodd" clip-rule="evenodd" d="M9.95051 7.3703C9.95051 9.3476 8.3476 10.9505 6.3703 10.9505C4.39301 10.9505 2.7901 9.3476 2.7901 7.3703C2.7901 5.39301 4.39301 3.7901 6.3703 3.7901C8.3476 3.7901 9.95051 5.39301 9.95051 7.3703ZM9.50321 11.7326C8.62143 12.367 7.5395 12.7406 6.3703 12.7406C3.40437 12.7406 1 10.3362 1 7.3703C1 4.40437 3.40437 2 6.3703 2C9.33624 2 11.7406 4.40437 11.7406 7.3703C11.7406 8.52077 11.3788 9.58674 10.7629 10.4607L14.0004 13.6982L12.7346 14.964L9.50321 11.7326Z" fill="#777E97"/>
</svg>
