<svg width="25" height="24" viewBox="0 0 25 24" fill="none" xmlns="http://www.w3.org/2000/svg">
<path d="M22.2819 5.07321C22.2815 5.06548 22.2806 5.05774 22.2793 5.05005C22.2493 5.0072 22.2124 4.97033 22.1815 4.92833C21.9575 4.62309 21.7202 4.3293 21.4699 4.04691C21.4013 3.96975 21.3327 3.89344 21.2624 3.81798C21.0046 3.54193 20.7342 3.27868 20.4512 3.02835C20.3989 2.98203 20.35 2.93405 20.2977 2.88859C19.6004 2.29122 18.8368 1.77568 18.0221 1.35218C17.9895 1.33505 17.9552 1.32048 17.9217 1.3033C17.5589 1.11893 17.1869 0.953192 16.807 0.806851C16.7213 0.776005 16.6432 0.746817 16.5618 0.721095C16.224 0.59937 15.881 0.492766 15.5329 0.401284C15.43 0.373854 15.3271 0.345571 15.2225 0.321557C14.8795 0.24183 14.5365 0.180943 14.1858 0.131208C14.0795 0.115785 13.9749 0.0951874 13.8677 0.0823266C12.9644 -0.0274422 12.0511 -0.0274422 11.1478 0.0823266C11.0406 0.0951874 10.936 0.115785 10.8297 0.131208C10.479 0.180943 10.1326 0.24183 9.793 0.321557C9.6884 0.345571 9.5855 0.373854 9.48261 0.401284C9.13218 0.492716 8.78923 0.59932 8.45367 0.721095C8.36791 0.750233 8.28988 0.779421 8.20844 0.806851C7.82867 0.953192 7.45658 1.11888 7.09374 1.3033C7.06028 1.32043 7.02601 1.335 6.99341 1.35218C6.17593 1.77523 5.4098 2.29071 4.70999 2.88859C4.65769 2.934 4.60881 2.98203 4.5565 3.02835C4.27068 3.27984 4.00028 3.54308 3.74536 3.81798C3.67507 3.89344 3.60644 3.96975 3.53786 4.04691C3.28691 4.3287 3.04967 4.62248 2.8262 4.92828C2.79535 4.97028 2.75847 5.00715 2.72843 5.05C2.72451 5.05749 2.72104 5.06523 2.71813 5.07316C-0.239375 9.2176 -0.239375 14.7824 2.71813 18.9268C2.72104 18.9347 2.72446 18.9425 2.72843 18.9499C2.75842 18.9928 2.7953 19.0297 2.8262 19.0717C3.04972 19.3769 3.28691 19.6707 3.53786 19.9531C3.60644 20.0303 3.67507 20.1066 3.74536 20.182C4.00375 20.4581 4.2741 20.7213 4.5565 20.9717C4.60881 21.018 4.65769 21.0659 4.70999 21.1114C5.40734 21.7088 6.17091 22.2243 6.98567 22.6478C7.01828 22.665 7.05254 22.6795 7.086 22.6967C7.44884 22.8811 7.82088 23.0468 8.2007 23.1931C8.28647 23.224 8.36449 23.2532 8.44593 23.2789C8.78375 23.4006 9.12675 23.5072 9.47487 23.5987C9.57777 23.6261 9.68066 23.6544 9.78526 23.6784C10.1283 23.7582 10.4712 23.8191 10.8219 23.8688C10.9283 23.8842 11.0329 23.9048 11.1401 23.9177C12.0434 24.0274 12.9566 24.0274 13.8599 23.9177C13.9671 23.9048 14.0717 23.8842 14.1781 23.8688C14.5287 23.8191 14.8752 23.7582 15.2147 23.6784C15.3193 23.6544 15.4222 23.6261 15.5251 23.5987C15.8761 23.5073 16.2191 23.4007 16.5541 23.2789C16.6398 23.2498 16.7179 23.2206 16.7993 23.1931C17.1791 23.0468 17.5512 22.8811 17.914 22.6967C17.9475 22.6796 17.9817 22.665 18.0143 22.6478C18.8291 22.2243 19.5927 21.7088 20.29 21.1114C20.3423 21.0659 20.3912 21.018 20.4435 20.9717C20.7293 20.7207 20.9997 20.4575 21.2546 20.182C21.3249 20.1066 21.3936 20.0303 21.4621 19.9531C21.7131 19.6707 21.9503 19.3769 22.1738 19.0717C22.2047 19.0297 22.2415 18.9928 22.2716 18.9499C22.2755 18.9425 22.279 18.9347 22.2819 18.9268C25.2394 14.7824 25.2394 9.21765 22.2819 5.07321ZM21.3035 6.69543C22.1236 8.04586 22.6187 9.56826 22.75 11.1427H17.6139C17.551 10.1211 17.3902 9.10788 17.1338 8.117C18.5846 7.84532 19.9889 7.36655 21.3035 6.69543ZM14.6857 1.94804C14.7337 1.9592 14.78 1.97462 14.828 1.98577C15.135 2.05781 15.4394 2.1401 15.7369 2.24299C15.7824 2.25841 15.827 2.27645 15.8716 2.29272C16.1666 2.39561 16.4572 2.50965 16.7419 2.63569C16.7917 2.65885 16.8405 2.68457 16.8903 2.70773C17.1629 2.8375 17.4293 2.97781 17.6894 3.12872L17.8609 3.23246C18.1078 3.38338 18.3479 3.54484 18.5812 3.7169C18.6412 3.76061 18.7012 3.80266 18.7604 3.85064C18.989 4.0221 19.208 4.20586 19.4172 4.40194C19.472 4.45168 19.5287 4.50056 19.5827 4.552C19.8022 4.76034 20.0114 4.98068 20.2137 5.20875C20.2395 5.23875 20.2669 5.26618 20.2926 5.29451C19.1316 5.84777 17.9016 6.24284 16.6356 6.46911C16.0491 4.85689 15.2743 3.31953 14.3274 1.88896C14.4464 1.91037 14.5682 1.92237 14.6857 1.94804ZM9.1054 11.1426C9.17302 10.215 9.33098 9.29607 9.57701 8.39903C10.5485 8.51443 11.526 8.57165 12.5044 8.57049C13.4836 8.57019 14.462 8.51151 15.4343 8.39471C15.6799 9.29321 15.837 10.2136 15.9033 11.1426H9.1054ZM15.9033 12.8575C15.8357 13.7851 15.6777 14.704 15.4317 15.6011C14.4602 15.4857 13.4827 15.4285 12.5043 15.4296C11.5251 15.4285 10.5468 15.4857 9.5744 15.6011C9.32907 14.704 9.17202 13.7851 9.10535 12.8575H15.9033V12.8575ZM12.5043 2.27047C13.4801 3.65335 14.2827 5.15068 14.894 6.72889C14.1003 6.81319 13.3026 6.85554 12.5043 6.85579C11.7069 6.85483 10.9101 6.81223 10.1172 6.72803C10.7293 5.15088 11.5309 3.65406 12.5043 2.27047ZM4.79585 5.20785C4.99737 4.97977 5.20743 4.75943 5.42693 4.5511C5.48094 4.49965 5.53757 4.45077 5.59243 4.40104C5.80394 4.20843 6.0229 4.02466 6.24923 3.84973C6.30842 3.80427 6.36841 3.76398 6.42844 3.716C6.66166 3.54454 6.90177 3.38303 7.1487 3.23156L7.32018 3.12782C7.58028 2.9758 7.84665 2.83544 8.11931 2.70683C8.16905 2.68367 8.21794 2.65795 8.26768 2.63479C8.55234 2.50618 8.84304 2.39214 9.13801 2.29182C9.18257 2.27554 9.22377 2.25751 9.2726 2.24208C9.57013 2.14261 9.87283 2.06032 10.1815 1.98487C10.2295 1.97372 10.2758 1.95829 10.3247 1.94799C10.4422 1.92227 10.564 1.91027 10.6831 1.88881C9.73578 3.31963 8.96075 4.85729 8.37399 6.46981C7.10796 6.24355 5.87795 5.84848 4.71697 5.29521C4.7427 5.26527 4.77013 5.23784 4.79585 5.20785ZM3.70517 6.69543C5.01953 7.3665 6.42352 7.84526 7.87409 8.117C7.61791 9.10793 7.45739 10.1211 7.39478 11.1427H2.25867C2.39 9.56826 2.88518 8.04586 3.70517 6.69543ZM3.70517 17.3047C2.88513 15.9543 2.38995 14.4319 2.25867 12.8575H7.39478C7.45769 13.8791 7.61846 14.8923 7.87494 15.8832C6.42412 16.1548 5.01983 16.6335 3.70517 17.3047ZM10.323 22.0521C10.275 22.0409 10.2287 22.0255 10.1807 22.0143C9.87369 21.9423 9.56928 21.86 9.27175 21.7571C9.22628 21.7417 9.18172 21.7237 9.1371 21.7074C8.84213 21.6045 8.55149 21.4905 8.26677 21.3644C8.21703 21.3412 8.16815 21.3155 8.11841 21.2924C7.84575 21.1626 7.57937 21.0223 7.31927 20.8714L7.1478 20.7676C6.90086 20.6167 6.66076 20.4553 6.42754 20.2832C6.3675 20.2395 6.30751 20.1974 6.24833 20.1495C6.01968 19.978 5.80073 19.7942 5.59152 19.5982C5.53666 19.5484 5.48004 19.4995 5.42603 19.4481C5.20653 19.2398 4.99732 19.0194 4.79495 18.7913C4.76923 18.7614 4.74179 18.7339 4.71607 18.7056C5.8771 18.1523 7.10705 17.7573 8.37308 17.531C8.9596 19.1432 9.73437 20.6806 10.6813 22.1111C10.5622 22.0898 10.4405 22.0778 10.323 22.0521ZM12.5043 21.7297C11.5285 20.3468 10.726 18.8495 10.1146 17.2713C11.7026 17.1004 13.3043 17.1004 14.8923 17.2713L14.8914 17.2721C14.2794 18.8492 13.4778 20.346 12.5043 21.7297ZM20.2128 18.7922C20.0113 19.0203 19.8013 19.2407 19.5818 19.449C19.5277 19.5004 19.4711 19.5493 19.4163 19.5991C19.2047 19.7923 18.9858 19.976 18.7595 20.1504C18.7003 20.1958 18.6403 20.2404 18.5802 20.2841C18.347 20.4556 18.1069 20.6171 17.86 20.7685L17.6885 20.8723C17.429 21.0237 17.1626 21.1641 16.8894 21.2933C16.8396 21.3164 16.7908 21.3422 16.741 21.3653C16.4563 21.4939 16.1657 21.608 15.8707 21.7083C15.8261 21.7246 15.7849 21.7426 15.7361 21.758C15.4386 21.8575 15.1359 21.9398 14.8272 22.0152C14.7791 22.0264 14.7329 22.0418 14.684 22.0521C14.5665 22.0778 14.4447 22.0898 14.3256 22.1113C15.2725 20.6807 16.0473 19.1434 16.6338 17.5311C17.8998 17.7574 19.1298 18.1525 20.2908 18.7057C20.266 18.7348 20.2386 18.7623 20.2128 18.7922ZM21.3035 17.3047C19.9892 16.6336 18.5852 16.1549 17.1346 15.8832C17.3908 14.8922 17.5513 13.879 17.6139 12.8575H22.75C22.6187 14.4318 22.1235 15.9542 21.3035 17.3047Z" fill="white"/>
</svg>
