<svg width="17" height="16" viewBox="0 0 17 16" fill="none" xmlns="http://www.w3.org/2000/svg">
<path d="M7.85698 11.6892C6.61421 11.6892 5.60693 10.6819 5.60693 9.43917V6.4391C5.60693 5.65608 6.00744 4.96607 6.61421 4.56331C6.00669 4.16205 5.60693 3.47203 5.60693 2.68902C5.60693 1.44624 6.61421 0.438965 7.85698 0.438965C9.09976 0.438965 10.107 1.44624 10.107 2.68902C10.107 3.47203 9.70652 4.16205 9.09976 4.56481C9.70727 4.96607 10.107 5.65608 10.107 6.4391V10.1884L11.1826 10.1892C11.6686 10.1892 12.1223 10.4247 12.4021 10.8162L12.4688 10.9174L14.4999 14.3038L13.2144 15.0748L11.1818 11.6892L10.107 11.6885L7.85698 11.6892ZM7.85698 5.68908C7.44297 5.68908 7.10697 6.02509 7.10697 6.4391V9.43917C7.10697 9.85318 7.44297 10.1892 7.85698 10.1892H8.60625L8.607 6.4391C8.607 6.02509 8.27099 5.68908 7.85698 5.68908ZM7.85698 1.939C7.44297 1.939 7.10697 2.27501 7.10697 2.68902C7.10697 3.10302 7.44297 3.43903 7.85698 3.43903C8.27099 3.43903 8.607 3.10302 8.607 2.68902C8.607 2.27501 8.27099 1.939 7.85698 1.939Z" fill="#777E97"/>
<path fill-rule="evenodd" clip-rule="evenodd" d="M3.35693 10.1891V4.93896H4.85697V10.1891C4.85697 11.4318 5.86435 12.4391 7.10702 12.4391H9.73208V13.9392H7.10702C5.0359 13.9392 3.35693 12.2602 3.35693 10.1891Z" fill="#777E97"/>
</svg>
