<svg width="41" height="40" viewBox="0 0 41 40" fill="none" xmlns="http://www.w3.org/2000/svg">
<path d="M27.9246 13.0754C25.9415 11.0922 23.3046 10 20.5 10C17.6954 10 15.0585 11.0922 13.0754 13.0754C11.0922 15.0585 10 17.6954 10 20.5C10 23.3046 11.0922 25.9414 13.0754 27.9246C15.0585 29.9079 17.6954 31 20.5 31C23.3046 31 25.9415 29.9078 27.9246 27.9246C29.9078 25.9415 31 23.3046 31 20.5C31 17.6954 29.9078 15.0586 27.9246 13.0754V13.0754ZM20.5 19.8438C22.1284 19.8438 23.4531 21.1685 23.4531 22.7969C23.4531 24.1453 22.5443 25.2848 21.3073 25.6369C21.2184 25.6622 21.1562 25.7422 21.1562 25.8346V26.3877C21.1562 26.7411 20.8847 27.0452 20.5317 27.0618C20.1548 27.0795 19.8438 26.7792 19.8438 26.4062V25.8345C19.8438 25.7423 19.782 25.6623 19.6933 25.6371C18.4616 25.2868 17.5551 24.1559 17.5469 22.8152C17.5447 22.4573 17.8261 22.1512 18.1838 22.1409C18.5551 22.1302 18.8594 22.428 18.8594 22.7969C18.8594 23.7403 19.6599 24.5003 20.6173 24.4334C21.4254 24.3769 22.0801 23.7222 22.1365 22.9141C22.2034 21.9566 21.4434 21.1562 20.5 21.1562C18.8716 21.1562 17.5469 19.8315 17.5469 18.2031C17.5469 16.8547 18.4557 15.7152 19.6927 15.3631C19.7816 15.3378 19.8438 15.2578 19.8438 15.1654V14.6123C19.8438 14.2589 20.1153 13.9548 20.4683 13.9382C20.8452 13.9205 21.1562 14.2208 21.1562 14.5938V15.1655C21.1562 15.2577 21.218 15.3377 21.3067 15.3629C22.5384 15.7132 23.4449 16.8441 23.4531 18.1848C23.4553 18.5427 23.1739 18.8488 22.8162 18.8591C22.4449 18.8698 22.1406 18.572 22.1406 18.2031C22.1406 17.2597 21.3401 16.4997 20.3827 16.5666C19.5746 16.6231 18.9199 17.2778 18.8635 18.0859C18.7966 19.0434 19.5566 19.8438 20.5 19.8438V19.8438Z" fill="white"/>
</svg>
