<svg width="41" height="40" viewBox="0 0 41 40" fill="none" xmlns="http://www.w3.org/2000/svg">
<path d="M28.9853 11.5147C26.7188 9.24819 23.7053 8 20.5 8C17.2947 8 14.2812 9.24819 12.0147 11.5147C9.74819 13.7812 8.5 16.7947 8.5 20C8.5 23.2053 9.74823 26.2188 12.0147 28.4853C14.2811 30.7519 17.2947 32 20.5 32C23.7053 32 26.7188 30.7518 28.9853 28.4853C31.2518 26.2188 32.5 23.2053 32.5 20C32.5 16.7947 31.2518 13.7812 28.9853 11.5147V11.5147ZM20.5 19.25C22.361 19.25 23.875 20.764 23.875 22.625C23.875 24.1661 22.8364 25.4684 21.4226 25.8708C21.321 25.8997 21.25 25.991 21.25 26.0967V26.7288C21.25 27.1327 20.9396 27.4802 20.5362 27.4992C20.1055 27.5194 19.75 27.1762 19.75 26.75V26.0965C19.75 25.9912 19.6794 25.8998 19.5781 25.871C18.1704 25.4706 17.1344 24.1782 17.125 22.646C17.1226 22.237 17.4441 21.887 17.853 21.8753C18.2772 21.8631 18.625 22.2035 18.625 22.625C18.625 23.7032 19.5399 24.5718 20.634 24.4953C21.5576 24.4308 22.3058 23.6825 22.3703 22.7589C22.4467 21.6647 21.5782 20.75 20.5 20.75C18.639 20.75 17.125 19.236 17.125 17.375C17.125 15.8339 18.1636 14.5316 19.5774 14.1292C19.679 14.1003 19.75 14.009 19.75 13.9033V13.2712C19.75 12.8673 20.0604 12.5198 20.4638 12.5008C20.8945 12.4806 21.25 12.8238 21.25 13.25V13.9035C21.25 14.0088 21.3206 14.1002 21.4219 14.129C22.8296 14.5294 23.8656 15.8218 23.875 17.354C23.8774 17.763 23.5559 18.113 23.147 18.1247C22.7228 18.1369 22.375 17.7965 22.375 17.375C22.375 16.2968 21.4601 15.4282 20.366 15.5047C19.4424 15.5692 18.6942 16.3175 18.6297 17.2411C18.5533 18.3353 19.4218 19.25 20.5 19.25V19.25Z" fill="#CCCED8"/>
</svg>
