<svg width="33" height="32" viewBox="0 0 33 32" fill="none" xmlns="http://www.w3.org/2000/svg">
<path fill-rule="evenodd" clip-rule="evenodd" d="M22.2775 13.5665C22.2775 17.8252 18.8252 21.2775 14.5665 21.2775C10.3079 21.2775 6.85551 17.8252 6.85551 13.5665C6.85551 9.30785 10.3079 5.85551 14.5665 5.85551C18.8252 5.85551 22.2775 9.30785 22.2775 13.5665ZM21.3137 22.9623C19.4146 24.3285 17.0845 25.1331 14.5665 25.1331C8.17851 25.1331 3 19.9545 3 13.5665C3 7.17851 8.17851 2 14.5665 2C20.9545 2 26.1331 7.17851 26.1331 13.5665C26.1331 16.0446 25.3538 18.3407 24.0269 20.223L31 27.1961L28.2737 29.9224L21.3137 22.9623Z" fill="#111D2D"/>
</svg>
