<svg width="25" height="24" viewBox="0 0 25 24" fill="none" xmlns="http://www.w3.org/2000/svg">
<path d="M8.59955 17.5992C9.25397 17.5992 9.78509 18.137 9.78509 18.7996C9.78509 19.4622 9.25397 20 8.59955 20C7.94514 20 7.41402 19.4622 7.41402 18.7996C7.41402 18.137 7.94514 17.5992 8.59955 17.5992ZM18.8742 17.5992C19.5286 17.5992 20.0597 18.137 20.0597 18.7996C20.0597 19.4622 19.5286 20 18.8742 20C18.2198 20 17.6887 19.4622 17.6887 18.7996C17.6887 18.137 18.2198 17.5992 18.8742 17.5992ZM5.96924 3L8.99394 6.06341V15.1984H20.0597V16.7989H8.20438C7.7681 16.7989 7.41402 16.4404 7.41402 15.9987V6.72603L4.8501 4.13237L5.96845 3H5.96924ZM16.8983 3.99473C17.3346 3.99473 17.6887 4.35325 17.6887 4.79499V6.39552H20.0542C20.4944 6.39552 20.8501 6.76044 20.8501 7.19178V13.6019C20.8501 14.042 20.4944 14.3982 20.0542 14.3982H10.581C10.1408 14.3982 9.78509 14.0332 9.78509 13.6019V7.19178C9.78509 6.75164 10.1408 6.39552 10.581 6.39552H12.9457L12.9465 4.79499C12.9465 4.35325 13.3006 3.99473 13.7369 3.99473H16.8983ZM12.1562 7.99605H11.3658V12.7976H12.1562V7.99605ZM16.8983 7.99605H13.7369V12.7976H16.8983V7.99605ZM19.2694 7.99605H18.479V12.7976H19.2694V7.99605ZM16.108 5.59526H14.5272V6.39552H16.108V5.59526Z" fill="#AAB0BC"/>
</svg>
