<svg width="16" height="16" viewBox="0 0 16 16" fill="none" xmlns="http://www.w3.org/2000/svg">
<path d="M5.5286 14.1052L10.5494 9.08337L12.776 9.08337C13.1275 9.08337 13.4817 9.00537 13.8121 8.85153L14.0288 8.73725C14.3196 8.60237 14.5 8.32015 14.5 8.00003C14.5 7.6799 14.3196 7.39768 14.0413 7.26877L13.8002 7.14256C13.4818 6.99468 13.1281 6.91668 12.776 6.91668L10.5494 6.91668L5.52966 1.8965C5.27403 1.64084 4.93443 1.5 4.57262 1.5L3.93783 1.5C3.83871 1.5 3.74772 1.55416 3.7006 1.64084C3.65295 1.7275 3.6562 1.83368 3.71035 1.91709L6.9812 7.02177C6.16173 7.07215 5.47767 7.1404 4.64518 7.22381L3.79212 7.30993L2.53935 5.41355C2.48845 5.33717 2.40396 5.29167 2.31297 5.29167L1.77135 5.29167C1.68958 5.29167 1.61158 5.32905 1.56012 5.39296C1.50813 5.45742 1.48863 5.54137 1.5065 5.62099L2.03567 8L1.5065 10.379C1.50216 10.3985 1.5 10.418 1.5 10.4375C1.5 10.4987 1.52059 10.5583 1.55959 10.607C1.61158 10.671 1.68958 10.7083 1.77135 10.7083L2.31297 10.7083C2.40396 10.7083 2.48898 10.6628 2.53882 10.5865L3.78997 8.69007L4.64574 8.77619C5.47713 8.8596 6.16064 8.92785 6.98013 8.97823L3.71037 14.0829C3.65622 14.1669 3.6535 14.2725 3.70062 14.3586C3.74775 14.4458 3.83874 14.5 3.93785 14.5L4.57264 14.5C4.93443 14.5001 5.27403 14.3598 5.5286 14.1052Z" fill="#CCCED8"/>
</svg>
