<svg width="33" height="32" viewBox="0 0 33 32" fill="none" xmlns="http://www.w3.org/2000/svg">
<path d="M32.3887 0H0.611335C0.549847 0 0.5 0.0498465 0.5 0.111335V31.8887C0.5 31.9502 0.549847 32 0.611335 32H32.3887C32.4502 32 32.5 31.9502 32.5 31.8887V0.111335C32.5 0.0498465 32.4502 0 32.3887 0Z" fill="#1675EF"/>
<path d="M21.6759 17.3017L22.2939 13.28H18.4304V10.6701C18.4304 9.56874 18.9693 8.49667 20.6975 8.49667H22.455V5.07247C21.4252 4.90557 20.3845 4.81451 19.3413 4.80005C16.1632 4.80005 14.0864 6.72745 14.0864 10.2161V13.28H10.545V17.3017H14.0776V27.0237C15.5177 27.2502 16.9844 27.2502 18.4245 27.0237V17.3017H21.6759Z" fill="white"/>
</svg>
