<svg width="24" height="24" viewBox="0 0 24 24" fill="none" xmlns="http://www.w3.org/2000/svg">
<path d="M19 4V20.3333H17.4444V14.6167H14.3333V8.9C14.3333 7.60044 14.825 6.35411 15.7002 5.43518C16.5753 4.51625 17.7623 4 19 4ZM17.4444 6.06617C16.7989 6.45 15.8889 7.4055 15.8889 8.9V12.9833H17.4444V6.06617ZM9.66667 13.7183V20.3333H8.11111V13.7183C7.23285 13.5298 6.44355 13.0286 5.87667 12.2994C5.30979 11.5703 5.00011 10.6579 5 9.71667V4.81667H6.55556V10.5333H7.33333H8.11111V4.81667H9.66667V10.5333H11.2222V4.81667H12.7778V9.71667C12.7777 10.6579 12.468 11.5703 11.9011 12.2994C11.3342 13.0286 10.5449 13.5298 9.66667 13.7183Z" fill="#AAB0BC"/>
</svg>
