<svg width="32" height="32" viewBox="0 0 32 32" fill="none" xmlns="http://www.w3.org/2000/svg">
<path d="M31.8887 0H0.111335C0.0498465 0 0 0.0498465 0 0.111335V31.8887C0 31.9502 0.0498465 32 0.111335 32H31.8887C31.9502 32 32 31.9502 32 31.8887V0.111335C32 0.0498465 31.9502 0 31.8887 0Z" fill="#CCCED8"/>
<path opacity="0.7" d="M15.9992 6C10.1996 6 5.5 9.7166 5.5 14.3014C5.5 17.2858 7.49212 19.9008 10.4814 21.3642C10.2638 22.1845 9.68607 24.3355 9.57075 24.7952C9.42876 25.3664 9.78018 25.3588 10.0103 25.2048C10.1909 25.0846 12.8881 23.2513 14.0517 22.4598C14.697 22.5554 15.3485 22.6034 16.0008 22.6034C21.8004 22.6034 26.5 18.8857 26.5 14.3014C26.5 9.71715 21.7988 6 16.0008 6" fill="white"/>
</svg>
