<svg width="16" height="16" viewBox="0 0 16 16" fill="none" xmlns="http://www.w3.org/2000/svg">
<path d="M5.33849 14.5736L10.7455 9.16599L13.1434 9.16599C13.5219 9.16599 13.9034 9.082 14.2592 8.91634L14.4925 8.79327C14.8058 8.64803 15 8.34413 15 7.99941C15 7.65469 14.8058 7.35079 14.506 7.21198L14.2464 7.07606C13.9034 6.91683 13.5225 6.83283 13.1434 6.83283L10.7456 6.83283L5.33964 1.42696C5.06434 1.15166 4.69862 1 4.30897 1L3.62535 1C3.51861 0.999999 3.42062 1.05832 3.36988 1.15166C3.31856 1.24498 3.32206 1.35932 3.38038 1.44914L6.90283 6.946C6.02033 7.00025 5.28364 7.07374 4.38711 7.16356L3.46844 7.2563L2.11931 5.21422C2.06449 5.13198 1.97349 5.08298 1.8755 5.08298L1.29223 5.08298C1.20416 5.08298 1.12017 5.12323 1.06475 5.19205C1.00875 5.26147 0.987752 5.35186 1.007 5.4376L1.57688 7.99938L1.007 10.5612C1.00233 10.5822 1 10.6032 1 10.6242C1 10.6901 1.02217 10.7542 1.06417 10.8067C1.12017 10.8755 1.20416 10.9158 1.29223 10.9158L1.8755 10.9158C1.97349 10.9158 2.06506 10.8668 2.11873 10.7845L3.46612 8.74247L4.38772 8.83521C5.28307 8.92503 6.01915 8.99852 6.90168 9.05277L3.3804 14.5496C3.32208 14.6401 3.31916 14.7538 3.3699 14.8465C3.42065 14.9405 3.51864 14.9988 3.62538 14.9988L4.309 14.9988C4.69862 14.9988 5.06433 14.8478 5.33849 14.5736Z" fill="white"/>
</svg>
