<svg width="24" height="24" viewBox="0 0 24 24" fill="none" xmlns="http://www.w3.org/2000/svg">
<path d="M8.26713 20.4837L14.8334 13.9167L17.7454 13.9167C18.2051 13.9167 18.6683 13.8147 19.1004 13.6135L19.3837 13.4641C19.7641 13.2877 20 12.9187 20 12.5C20 12.0814 19.7641 11.7124 19.4001 11.5438L19.0849 11.3787C18.6684 11.1854 18.2058 11.0834 17.7454 11.0834L14.8334 11.0834L8.26853 4.5185C7.9342 4.18418 7.49008 4 7.0169 4L6.18672 4C6.05709 4 5.93809 4.07082 5.87647 4.18418C5.81414 4.2975 5.81839 4.43636 5.88922 4.54543L10.1669 11.2208C9.09516 11.2867 8.20053 11.3759 7.11179 11.485L5.99616 11.5976L4.35778 9.11772C4.29121 9.01784 4.18071 8.95834 4.06171 8.95834L3.35338 8.95834C3.24644 8.95834 3.14444 9.00722 3.07713 9.09079C3.00913 9.17509 2.98363 9.28486 3.00701 9.38899L3.69906 12.5L3.00701 15.611C3.00133 15.6365 2.9985 15.662 2.9985 15.6875C2.9985 15.7676 3.02543 15.8455 3.07643 15.9092C3.14443 15.9928 3.24643 16.0417 3.35338 16.0417L4.06171 16.0417C4.18071 16.0417 4.29191 15.9822 4.35708 15.8823L5.99334 13.4024L7.11252 13.515C8.19983 13.6241 9.09373 13.7133 10.1655 13.7792L5.88925 20.4546C5.81843 20.5644 5.81487 20.7025 5.8765 20.8151C5.93812 20.9292 6.05712 21 6.18675 21L7.01693 21C7.49008 21.0001 7.9342 20.8166 8.26713 20.4837Z" fill="#CCCED8"/>
</svg>
