<svg width="86" height="24" viewBox="0 0 86 24" fill="none" xmlns="http://www.w3.org/2000/svg">
<rect y="11" width="3" height="2" fill="#CCCED8"/>
<rect x="6" y="11" width="3" height="2" fill="#CCCED8"/>
<rect x="12" y="11" width="3" height="2" fill="#CCCED8"/>
<rect x="18" y="11" width="3" height="2" fill="#CCCED8"/>
<rect x="24" y="11" width="3" height="2" fill="#CCCED8"/>
<path d="M39.2671 20.4837L45.8334 13.9167L48.7454 13.9167C49.2051 13.9167 49.6683 13.8147 50.1004 13.6135L50.3837 13.4641C50.7641 13.2877 51 12.9187 51 12.5C51 12.0814 50.7641 11.7124 50.4001 11.5438L50.0849 11.3787C49.6684 11.1854 49.2058 11.0834 48.7454 11.0834L45.8334 11.0834L39.2685 4.5185C38.9342 4.18418 38.4901 4 38.0169 4L37.1867 4C37.0571 4 36.9381 4.07082 36.8765 4.18418C36.8141 4.2975 36.8184 4.43636 36.8892 4.54543L41.1669 11.2208C40.0952 11.2867 39.2005 11.3759 38.1118 11.485L36.9962 11.5976L35.3578 9.11772C35.2912 9.01784 35.1807 8.95834 35.0617 8.95834L34.3534 8.95834C34.2464 8.95834 34.1444 9.00722 34.0771 9.09079C34.0091 9.17509 33.9836 9.28486 34.007 9.38899L34.6991 12.5L34.007 15.611C34.0013 15.6365 33.9985 15.662 33.9985 15.6875C33.9985 15.7676 34.0254 15.8455 34.0764 15.9092C34.1444 15.9928 34.2464 16.0417 34.3534 16.0417L35.0617 16.0417C35.1807 16.0417 35.2919 15.9822 35.3571 15.8823L36.9933 13.4024L38.1125 13.515C39.1998 13.6241 40.0937 13.7133 41.1655 13.7792L36.8892 20.4546C36.8184 20.5644 36.8149 20.7025 36.8765 20.8151C36.9381 20.9292 37.0571 21 37.1867 21L38.0169 21C38.4901 21.0001 38.9342 20.8166 39.2671 20.4837Z" fill="#CCCED8"/>
<rect x="59" y="11" width="3" height="2" fill="#CCCED8"/>
<rect x="65" y="11" width="3" height="2" fill="#CCCED8"/>
<rect x="71" y="11" width="3" height="2" fill="#CCCED8"/>
<rect x="77" y="11" width="3" height="2" fill="#CCCED8"/>
<rect x="83" y="11" width="3" height="2" fill="#CCCED8"/>
</svg>
