<svg width="16" height="16" viewBox="0 0 16 16" fill="none" xmlns="http://www.w3.org/2000/svg">
<path d="M13.7986 4.2482C13.7984 4.24401 13.798 4.23982 13.7972 4.23566C13.781 4.21244 13.761 4.19247 13.7443 4.16972C13.6229 4.00436 13.4944 3.84522 13.3588 3.69225C13.3217 3.65045 13.2845 3.60911 13.2464 3.56823C13.1068 3.41869 12.9603 3.27609 12.807 3.14048C12.7787 3.11539 12.7522 3.0894 12.7239 3.06477C12.3462 2.74117 11.9326 2.4619 11.4912 2.23249C11.4736 2.22321 11.455 2.21531 11.4369 2.20601C11.2404 2.10613 11.0388 2.01635 10.8331 1.93708C10.7866 1.92037 10.7444 1.90456 10.7003 1.89062C10.5173 1.82468 10.3315 1.76694 10.1429 1.71738C10.0872 1.70252 10.0315 1.6872 9.97479 1.67419C9.789 1.631 9.60324 1.59802 9.41326 1.57108C9.35568 1.56272 9.29902 1.55156 9.24094 1.5446C8.75166 1.48513 8.25699 1.48513 7.76768 1.5446C7.70964 1.55156 7.65298 1.56272 7.59536 1.57108C7.40541 1.59802 7.21777 1.631 7.03383 1.67419C6.97717 1.6872 6.92144 1.70252 6.8657 1.71738C6.67588 1.76691 6.49012 1.82466 6.30836 1.89062C6.26191 1.90641 6.21964 1.92222 6.17553 1.93708C5.96982 2.01635 5.76827 2.1061 5.57173 2.20601C5.55361 2.21529 5.53505 2.22318 5.51738 2.23249C5.07458 2.46165 4.6596 2.7409 4.28053 3.06477C4.2522 3.08937 4.22573 3.11539 4.1974 3.14048C4.04257 3.27671 3.89611 3.41932 3.75803 3.56823C3.71995 3.60911 3.68278 3.65045 3.64563 3.69225C3.5097 3.84489 3.38119 4.00404 3.26014 4.16969C3.24344 4.19244 3.22346 4.21241 3.20719 4.23563C3.20506 4.23968 3.20319 4.24387 3.20161 4.24817C1.59963 6.49325 1.59963 9.50775 3.20161 11.7528C3.20319 11.7571 3.20504 11.7613 3.20719 11.7653C3.22343 11.7886 3.24341 11.8085 3.26014 11.8313C3.38122 11.9966 3.5097 12.1558 3.64563 12.3087C3.68278 12.3505 3.71995 12.3919 3.75803 12.4328C3.89799 12.5823 4.04443 12.7249 4.1974 12.8605C4.22573 12.8856 4.2522 12.9116 4.28053 12.9362C4.65826 13.2598 5.07186 13.5391 5.51319 13.7685C5.53085 13.7778 5.54942 13.7857 5.56754 13.795C5.76408 13.8949 5.9656 13.9846 6.17134 14.0639C6.21779 14.0806 6.26005 14.0964 6.30417 14.1104C6.48716 14.1763 6.67295 14.2341 6.86151 14.2836C6.91725 14.2985 6.97298 14.3138 7.02964 14.3268C7.21543 14.37 7.40119 14.403 7.59117 14.4299C7.64876 14.4383 7.70542 14.4494 7.76349 14.4564C8.25277 14.5159 8.74744 14.5159 9.23675 14.4564C9.2948 14.4494 9.35146 14.4383 9.40907 14.4299C9.59902 14.403 9.78666 14.37 9.9706 14.3268C10.0273 14.3138 10.083 14.2985 10.1387 14.2836C10.3288 14.2341 10.5146 14.1763 10.6961 14.1104C10.7425 14.0946 10.7848 14.0788 10.8289 14.0639C11.0346 13.9846 11.2362 13.8949 11.4327 13.795C11.4508 13.7857 11.4694 13.7778 11.4871 13.7685C11.9284 13.5391 12.342 13.2598 12.7197 12.9362C12.748 12.9116 12.7745 12.8856 12.8028 12.8605C12.9577 12.7246 13.1041 12.582 13.2422 12.4328C13.2803 12.3919 13.3175 12.3505 13.3546 12.3087C13.4905 12.1558 13.6191 11.9966 13.7401 11.8313C13.7568 11.8085 13.7768 11.7886 13.7931 11.7653C13.7952 11.7613 13.7971 11.7571 13.7986 11.7528C15.4006 9.50777 15.4006 6.49328 13.7986 4.2482ZM13.2687 5.12697C13.7129 5.85851 13.9811 6.6832 14.0522 7.53609H11.2702C11.2361 6.98267 11.149 6.43381 11.0101 5.89704C11.7959 5.74987 12.5566 5.49052 13.2687 5.12697ZM9.68404 2.55527C9.71006 2.56131 9.73512 2.56967 9.76114 2.57571C9.92741 2.61473 10.0923 2.65931 10.2535 2.71504C10.2781 2.7234 10.3022 2.73317 10.3264 2.74199C10.4862 2.79772 10.6436 2.8595 10.7978 2.92778C10.8248 2.94032 10.8512 2.95426 10.8782 2.9668C11.0259 3.0371 11.1702 3.1131 11.3111 3.19486L11.4039 3.25105C11.5377 3.3328 11.6678 3.42027 11.7941 3.51348C11.8266 3.53715 11.8591 3.55993 11.8912 3.58592C12.015 3.6788 12.1336 3.77835 12.2469 3.88457C12.2766 3.91151 12.3073 3.93799 12.3366 3.96586C12.4555 4.07871 12.5688 4.19807 12.6784 4.32162C12.6923 4.33787 12.7072 4.35273 12.7211 4.36808C12.0922 4.66779 11.426 4.8818 10.7402 5.00437C10.4225 4.13102 10.0029 3.29821 9.48995 2.52327C9.55445 2.53486 9.62041 2.54136 9.68404 2.55527ZM6.66138 7.53606C6.69801 7.03353 6.78357 6.53576 6.91684 6.04982C7.44308 6.11233 7.97255 6.14333 8.50249 6.14271C9.03292 6.14254 9.56288 6.11076 10.0895 6.04748C10.2226 6.53421 10.3076 7.03277 10.3436 7.53606H6.66138ZM10.3436 8.46499C10.3069 8.96752 10.2214 9.46529 10.0881 9.95123C9.56188 9.88872 9.0324 9.85772 8.50246 9.85834C7.97206 9.85774 7.44212 9.88874 6.91542 9.95123C6.78254 9.46526 6.69747 8.96749 6.66135 8.46499H10.3436V8.46499ZM8.50246 2.72993C9.03101 3.47905 9.46573 4.29017 9.7969 5.14509C9.36694 5.19076 8.93487 5.2137 8.50246 5.21384C8.07055 5.21332 7.63893 5.19024 7.20942 5.14463C7.54099 4.29027 7.97519 3.47943 8.50246 2.72993ZM4.32704 4.32113C4.4362 4.19758 4.54998 4.07822 4.66888 3.96537C4.69813 3.9375 4.7288 3.91102 4.75852 3.88408C4.87309 3.77974 4.99169 3.68019 5.11429 3.58543C5.14635 3.5608 5.17884 3.53898 5.21136 3.51299C5.33769 3.42011 5.46775 3.33261 5.6015 3.25056L5.69438 3.19437C5.83527 3.11202 5.97956 3.03598 6.12725 2.96631C6.15419 2.95377 6.18067 2.93983 6.20761 2.92729C6.36181 2.85762 6.51927 2.79584 6.67904 2.7415C6.70318 2.73268 6.7255 2.72291 6.75195 2.71455C6.91311 2.66067 7.07707 2.61609 7.24428 2.57522C7.27029 2.56918 7.29536 2.56082 7.32184 2.55524C7.38546 2.54131 7.45143 2.53481 7.51598 2.52319C7.00283 3.29827 6.58303 4.13124 6.2652 5.00475C5.57943 4.88218 4.91318 4.66817 4.28432 4.36846C4.29825 4.35224 4.31311 4.33738 4.32704 4.32113ZM3.73625 5.12697C4.4482 5.49049 5.2087 5.74984 5.99442 5.89704C5.85565 6.43384 5.76871 6.98269 5.7348 7.53609H2.95274C3.02387 6.6832 3.29209 5.85851 3.73625 5.12697ZM3.73625 10.8741C3.29207 10.1426 3.02385 9.31787 2.95274 8.46499H5.7348C5.76887 9.01841 5.85595 9.56726 5.99488 10.104C5.20902 10.2512 4.44836 10.5105 3.73625 10.8741ZM7.32091 13.4458C7.2949 13.4397 7.26983 13.4314 7.24381 13.4253C7.07754 13.3863 6.91265 13.3417 6.75149 13.286C6.72686 13.2776 6.70272 13.2679 6.67855 13.2591C6.51878 13.2033 6.36135 13.1416 6.20712 13.0733C6.18018 13.0607 6.1537 13.0468 6.12676 13.0342C5.97907 12.964 5.83478 12.8879 5.69389 12.8062L5.60101 12.75C5.46726 12.6682 5.3372 12.5808 5.21087 12.4876C5.17835 12.4639 5.14586 12.4411 5.1138 12.4151C4.98995 12.3222 4.87135 12.2227 4.75803 12.1165C4.72831 12.0895 4.69764 12.0631 4.66839 12.0352C4.54949 11.9223 4.43617 11.803 4.32655 11.6794C4.31262 11.6632 4.29776 11.6483 4.28383 11.633C4.91272 11.3333 5.57894 11.1193 6.26471 10.9967C6.5824 11.87 7.00207 12.7028 7.515 13.4778C7.45048 13.4662 7.38454 13.4597 7.32091 13.4458ZM8.50246 13.2711C7.97391 12.522 7.53919 11.7109 7.20803 10.856C8.06818 10.7634 8.93579 10.7634 9.79594 10.856L9.79548 10.8564C9.46396 11.7108 9.02976 12.5216 8.50246 13.2711ZM12.6779 11.6799C12.5688 11.8035 12.455 11.9228 12.3361 12.0357C12.3068 12.0636 12.2761 12.09 12.2464 12.117C12.1319 12.2216 12.0133 12.3212 11.8907 12.4156C11.8586 12.4402 11.8261 12.4644 11.7936 12.4881C11.6673 12.5809 11.5372 12.6684 11.4034 12.7505L11.3106 12.8067C11.17 12.8887 11.0257 12.9647 10.8777 13.0347C10.8508 13.0473 10.8243 13.0612 10.7973 13.0738C10.6431 13.1434 10.4857 13.2052 10.3259 13.2596C10.3018 13.2684 10.2795 13.2781 10.253 13.2865C10.0918 13.3404 9.92788 13.385 9.76067 13.4258C9.73466 13.4319 9.70959 13.4402 9.68312 13.4458C9.61949 13.4597 9.55352 13.4662 9.48897 13.4779C10.0019 12.7029 10.4216 11.8701 10.7393 10.9968C11.425 11.1193 12.0913 11.3333 12.7201 11.6331C12.7067 11.6488 12.6918 11.6637 12.6779 11.6799ZM13.2687 10.8741C12.5568 10.5106 11.7963 10.2512 11.0105 10.104C11.1493 9.56724 11.2362 9.01838 11.2702 8.46499H14.0522C13.9811 9.31785 13.7129 10.1425 13.2687 10.8741Z" fill="white"/>
</svg>
