<svg width="16" height="16" viewBox="0 0 16 16" fill="none" xmlns="http://www.w3.org/2000/svg">
<path d="M1.77445 8.03188C1.78717 7.92475 1.85344 7.83101 1.95158 7.78104L1.96471 7.77504C1.99497 7.76271 2.71028 7.47303 3.14861 7.41311C3.23173 7.4017 3.31918 7.41759 3.39933 7.45668L4.87143 7.96471C5.15863 7.82086 6.2475 7.27591 7.53015 6.63854L4.49801 5.08257C4.40887 5.03681 4.35695 4.95836 4.35932 4.87272C4.36162 4.78715 4.41767 4.71154 4.50924 4.67046L5.53131 4.21136C5.62939 4.16732 5.78527 4.14992 5.89309 4.17233L10.5511 5.14724C11.5096 4.67871 12.3006 4.29878 12.6305 4.15677C12.8726 4.05254 13.1669 4 13.5053 4C14.0636 4 14.7467 4.15631 14.873 4.38698C14.8779 4.39582 15.2112 5.35886 13.2863 6.43661L6.10799 9.99944C6.10082 10.0027 5.92964 10.0862 5.76313 10.1147C5.48136 10.1629 5.17623 10.1768 4.86236 10.1768H4.77139C4.72787 10.1768 4.68509 10.1768 4.64306 10.1768H4.6147V10.1671C4.41164 10.1671 4.26246 10.0815 4.2385 10.0654L1.89066 8.32235L1.88511 8.31583C1.80152 8.24542 1.76186 8.13941 1.77445 8.03188ZM4.6149 9.99139H4.61484V9.99245L4.6149 9.99139Z" fill="#AAB0BC"/>
<path fill-rule="evenodd" clip-rule="evenodd" d="M15.67 13.3057C15.67 13.5819 15.4461 13.8057 15.17 13.8057H1.5C1.22386 13.8057 1 13.5819 1 13.3057V12.9932C1 12.717 1.22386 12.4932 1.5 12.4932H15.17C15.4461 12.4932 15.67 12.717 15.67 12.9932V13.3057Z" fill="#AAB0BC"/>
</svg>
