<svg width="79" height="16" viewBox="0 0 79 16" fill="none" xmlns="http://www.w3.org/2000/svg">
<rect x="0.5" y="7" width="3" height="2" fill="#CCCED8"/>
<rect x="6.5" y="7" width="3" height="2" fill="#CCCED8"/>
<rect x="12.5" y="7" width="3" height="2" fill="#CCCED8"/>
<rect x="18.5" y="7" width="3" height="2" fill="#CCCED8"/>
<rect x="24.5" y="7" width="3" height="2" fill="#CCCED8"/>
<path d="M35.3682 9.04613C35.3773 8.96519 35.4244 8.89437 35.4942 8.85661L35.5035 8.85208C35.5251 8.84277 36.0337 8.62391 36.3454 8.57864C36.4045 8.57002 36.4667 8.58202 36.5236 8.61156L37.5704 8.99538C37.7746 8.8867 38.5489 8.47499 39.4609 7.99345L37.3049 6.81789C37.2415 6.78332 37.2046 6.72405 37.2063 6.65935C37.2079 6.5947 37.2478 6.53757 37.3129 6.50654L38.0396 6.15968C38.1094 6.12641 38.2202 6.11326 38.2969 6.1302L41.609 6.86675C42.2906 6.51277 42.8531 6.22573 43.0876 6.11844C43.2598 6.0397 43.4691 6 43.7097 6C44.1067 6 44.5924 6.11809 44.6822 6.29237C44.6857 6.29904 44.9227 7.02663 43.554 7.84089L38.4497 10.5326C38.4446 10.5351 38.3229 10.5982 38.2045 10.6197C38.0041 10.6561 37.7871 10.6667 37.564 10.6667H37.4993C37.4683 10.6667 37.4379 10.6667 37.408 10.6667H37.3879V10.6593C37.2435 10.6593 37.1374 10.5946 37.1204 10.5824L35.4509 9.26558L35.4469 9.26065C35.3875 9.20746 35.3593 9.12737 35.3682 9.04613ZM37.388 10.5266H37.388V10.5274L37.388 10.5266Z" fill="#AAB0BC"/>
<path fill-rule="evenodd" clip-rule="evenodd" d="M32.9222 5.13225L32.411 5.26924L32.1666 4.35733L34.3421 3.77441L34.925 5.94988L34.0131 6.19423L33.8908 5.73779C33.539 6.52717 33.3434 7.40161 33.3434 8.32262C33.3434 11.8334 36.1895 14.6794 39.7002 14.6794C40.7932 14.6794 41.8202 14.404 42.7173 13.9193L43.2558 14.9161C42.1974 15.4879 40.9859 15.8123 39.7002 15.8123C35.5638 15.8123 32.2105 12.4591 32.2105 8.32262C32.2105 7.18225 32.4657 6.10049 32.9222 5.13225Z" fill="#AAB0BC"/>
<path fill-rule="evenodd" clip-rule="evenodd" d="M46.2572 11.9355L46.8005 11.7899L47.0449 12.7018L44.8694 13.2847L44.2865 11.1093L45.1984 10.8649L45.3153 11.3011C45.7805 10.4851 46.0712 9.55279 46.1335 8.55089C46.3512 5.04688 43.6871 2.02983 40.1831 1.81211C39.0922 1.74433 38.0501 1.95549 37.1247 2.38362L36.649 1.35544C37.7409 0.850308 38.9702 0.60167 40.2534 0.681398C44.3819 0.937919 47.5207 4.49267 47.2642 8.62115C47.189 9.8304 46.8305 10.9558 46.2572 11.9355Z" fill="#AAB0BC"/>
<rect x="51.5" y="7" width="3" height="2" fill="#CCCED8"/>
<rect x="57.5" y="7" width="3" height="2" fill="#CCCED8"/>
<rect x="63.5" y="7" width="3" height="2" fill="#CCCED8"/>
<rect x="69.5" y="7" width="3" height="2" fill="#CCCED8"/>
<rect x="75.5" y="7" width="3" height="2" fill="#CCCED8"/>
</svg>
