<svg width="24" height="24" viewBox="0 0 24 24" fill="none" xmlns="http://www.w3.org/2000/svg">
<path d="M12 9.5C10.345 9.5 9 10.845 9 12.5C9 14.155 10.345 15.5 12 15.5C13.655 15.5 15 14.155 15 12.5C15 10.845 13.655 9.5 12 9.5Z" fill="#0069E4"/>
<path d="M12 5C6.99999 5 2.73001 8.10996 1 12.5C2.73001 16.89 6.99999 20 12 20C17.005 20 21.27 16.89 23 12.5C21.27 8.10996 17.005 5 12 5ZM12 17.5C9.24 17.5 6.99999 15.2599 6.99999 12.4999C6.99999 9.73995 9.24 7.49998 12 7.49998C14.76 7.49998 17 9.73999 17 12.5C17 15.26 14.76 17.5 12 17.5Z" fill="#0069E4"/>
</svg>
