<svg width="16" height="16" viewBox="0 0 16 16" fill="none" xmlns="http://www.w3.org/2000/svg">
<path d="M1 5.44286C2.97995 3.85886 5.45179 2.99624 8 3.00001C10.6512 3.00001 13.0865 3.9147 15 5.44201L13.9229 6.75862C12.2475 5.4186 10.156 4.68895 8 4.69232C5.75664 4.69232 3.6958 5.46655 2.07712 6.75862L1 5.44286ZM3.69237 8.73439C4.91075 7.75953 6.43186 7.22858 8 7.23078C9.63153 7.23078 11.1302 7.79347 12.3076 8.73355L11.2305 10.0502C10.3167 9.31928 9.17596 8.92129 8 8.92308C6.77635 8.92308 5.6521 9.34531 4.76949 10.0502L3.69237 8.73439ZM6.38475 12.0259C6.84152 11.6601 7.41191 11.4608 8 11.4615C8.61183 11.4615 9.17395 11.6731 9.61525 12.0251L8 14L6.38475 12.0259Z" fill="#AAB0BC"/>
</svg>
