<svg width="32" height="32" viewBox="0 0 32 32" fill="none" xmlns="http://www.w3.org/2000/svg">
<path fill-rule="evenodd" clip-rule="evenodd" d="M29.5001 16.3156C29.5012 15.3706 29.4174 14.4275 29.2497 13.4976H16.2754V18.8248H23.6876C23.5338 19.6666 23.2109 20.4684 22.7387 21.182C22.2664 21.8956 21.6544 22.506 20.9396 22.9766V26.4329H25.3898C27.9938 24.0353 29.4962 20.5037 29.4962 16.313L29.5001 16.3156Z" fill="#B4B6BD"/>
<path fill-rule="evenodd" clip-rule="evenodd" d="M16.2683 29.7734C19.9868 29.7734 23.1045 28.5409 25.3828 26.4378L20.9326 22.9814C19.6987 23.8079 18.1211 24.297 16.2683 24.297C12.681 24.297 9.64497 21.8734 8.56292 18.6182H3.96094V22.1874C5.10732 24.4686 6.86542 26.3862 9.03881 27.7258C11.2122 29.0654 13.7153 29.7744 16.2683 29.7734Z" fill="#D1D2D9"/>
<path fill-rule="evenodd" clip-rule="evenodd" d="M8.56669 18.6182C7.99064 16.9216 7.99064 15.0822 8.56669 13.3856V9.81641H3.96471C3.00155 11.7361 2.5 13.8541 2.5 16.0019C2.5 18.1496 3.00155 20.2677 3.96471 22.1874L8.56669 18.6182Z" fill="#DFE0E5"/>
<path fill-rule="evenodd" clip-rule="evenodd" d="M16.2697 7.70691C18.2923 7.70691 20.1074 8.40233 21.5346 9.76722L25.484 5.81656C23.0993 3.59407 19.9816 2.23047 16.2722 2.23047C13.7192 2.22952 11.2161 2.93846 9.04272 4.2781C6.86933 5.61773 5.11123 7.53529 3.96484 9.81652L8.56682 13.3857C9.64888 10.1305 12.6849 7.70691 16.2722 7.70691H16.2697Z" fill="#C4C6CE"/>
</svg>
