<svg width="16" height="16" viewBox="0 0 16 16" fill="none" xmlns="http://www.w3.org/2000/svg">
<path d="M3.86825 9.04613C3.87729 8.96519 3.92441 8.89437 3.9942 8.85661L4.00354 8.85208C4.02505 8.84277 4.53368 8.62391 4.84537 8.57864C4.90447 8.57002 4.96666 8.58202 5.02364 8.61156L6.07041 8.99538C6.27463 8.8867 7.04889 8.47499 7.96094 7.99345L5.80488 6.81789C5.7415 6.78332 5.70458 6.72405 5.70627 6.65935C5.7079 6.5947 5.74775 6.53757 5.81287 6.50654L6.53963 6.15968C6.60937 6.12641 6.72021 6.11326 6.79688 6.1302L10.109 6.86675C10.7906 6.51277 11.3531 6.22573 11.5876 6.11844C11.7598 6.0397 11.9691 6 12.2097 6C12.6067 6 13.0924 6.11809 13.1822 6.29237C13.1857 6.29904 13.4227 7.02663 12.054 7.84089L6.94969 10.5326C6.94459 10.5351 6.82287 10.5982 6.70447 10.6197C6.50411 10.6561 6.28714 10.6667 6.06396 10.6667H5.99928C5.96833 10.6667 5.93791 10.6667 5.90803 10.6667H5.88786V10.6593C5.74347 10.6593 5.63739 10.5946 5.62035 10.5824L3.95088 9.26558L3.94694 9.26065C3.8875 9.20746 3.85929 9.12737 3.86825 9.04613ZM5.888 10.5266H5.88795V10.5274L5.888 10.5266Z" fill="#AAB0BC"/>
<path fill-rule="evenodd" clip-rule="evenodd" d="M1.42222 5.13225L0.910972 5.26924L0.666626 4.35733L2.8421 3.77441L3.42501 5.94988L2.5131 6.19423L2.3908 5.73779C2.039 6.52717 1.84344 7.40161 1.84344 8.32262C1.84344 11.8334 4.68947 14.6794 8.20023 14.6794C9.29323 14.6794 10.3202 14.404 11.2173 13.9193L11.7558 14.9161C10.6974 15.4879 9.48587 15.8123 8.20023 15.8123C4.06379 15.8123 0.710541 12.4591 0.710541 8.32262C0.710541 7.18225 0.965743 6.10049 1.42222 5.13225Z" fill="#AAB0BC"/>
<path fill-rule="evenodd" clip-rule="evenodd" d="M14.7572 11.9353L15.3005 11.7897L15.5449 12.7016L13.3694 13.2845L12.7865 11.109L13.6984 10.8647L13.8153 11.3009C14.2805 10.4848 14.5712 9.55254 14.6335 8.55065C14.8512 5.04664 12.1871 2.02959 8.68312 1.81187C7.59223 1.74409 6.55014 1.95524 5.62474 2.38338L5.14905 1.35519C6.24087 0.850064 7.47021 0.601425 8.75337 0.681154C12.8819 0.937674 16.0207 4.49242 15.7642 8.6209C15.689 9.83016 15.3305 10.9555 14.7572 11.9353Z" fill="#AAB0BC"/>
</svg>
