<svg width="170" height="18" viewBox="0 0 170 18" fill="none" xmlns="http://www.w3.org/2000/svg">
<path d="M83.1148 1.01286H74.2109V16.8703H78.2433V10.6414H82.6719V7.14663H78.2433V4.50768H83.1148V1.01286Z" fill="#0069E4"/>
<path d="M86.9347 1.01286V16.8703H95.8152V13.3755H90.9671V1.01286H86.9347Z" fill="#0069E4"/>
<path d="M99.2943 1.01286V16.8703H103.327V1.01286H99.2943Z" fill="#0069E4"/>
<path d="M115.471 11.0932H118.78C118.641 11.9728 118.198 12.5434 117.825 12.8524C117.102 13.4706 116.286 13.5895 115.587 13.5895C114.399 13.5895 113.489 13.1853 112.744 12.377C112.021 11.5924 111.508 10.4037 111.508 8.95347C111.508 7.71721 111.951 6.2432 112.86 5.31601C113.583 4.579 114.562 4.22239 115.517 4.22239C116.286 4.22239 117.009 4.43636 117.685 5.00694C118.081 5.33978 118.524 5.86282 118.804 6.59982L122.65 4.98317C122.09 3.7469 121.088 2.48687 119.876 1.72609C118.687 0.98909 117.126 0.65625 115.68 0.65625C112.93 0.65625 110.926 1.67854 109.644 2.98613C108.292 4.34126 107.313 6.40962 107.313 8.9297C107.313 11.5449 108.385 13.4706 109.55 14.6593C110.809 15.9669 112.72 17.0129 115.517 17.0129C117.499 17.0129 119.363 16.5612 120.995 15.0159C122.859 13.2566 123.489 11.0218 123.489 7.88363H115.471V11.0932Z" fill="#0069E4"/>
<path d="M131.506 1.01286H127.473V16.8703H131.506V10.4512H137.333V16.8703H141.389V1.01286H137.333V6.93266H131.506V1.01286Z" fill="#0069E4"/>
<path d="M155.253 4.50768V1.01286H144.601V4.50768H147.911V16.8703H151.944V4.50768H155.253Z" fill="#0069E4"/>
<path d="M157.753 15.4438C158.872 16.2284 159.851 16.6088 160.107 16.7039C161.249 17.1318 162.182 17.2269 163.16 17.2269C164.815 17.2269 166.424 16.9654 167.752 15.6103C168.871 14.4691 169.221 13.0664 169.221 11.6162C169.221 10.5226 169.011 9.64292 168.218 8.78705C167.403 7.88363 166.377 7.52701 165.398 7.21795L164.163 6.83756C163.207 6.55227 162.927 6.26698 162.811 6.12433C162.648 5.91036 162.601 5.6964 162.601 5.4111C162.601 5.05449 162.764 4.79297 162.997 4.55523C163.394 4.17484 163.93 4.07974 164.326 4.07974C164.862 4.07974 165.771 4.17484 166.983 5.14959L168.591 1.94006C167.123 1.15551 165.328 0.65625 163.79 0.65625C161.902 0.65625 160.597 1.3457 159.804 2.15403C159.128 2.84348 158.382 4.0322 158.382 5.98169C158.382 6.79001 158.475 7.9074 159.268 8.78705C159.897 9.50028 160.853 9.85689 161.506 10.0709L162.554 10.4037C163.557 10.7128 164.163 10.8792 164.559 11.2358C164.885 11.5211 165.002 11.8777 165.002 12.1868C165.002 12.5909 164.839 12.9475 164.606 13.1853C164.349 13.4706 163.86 13.7321 163.044 13.7321C161.645 13.7321 160.34 12.9475 159.478 12.1154L157.753 15.4438Z" fill="#0069E4"/>
<path fill-rule="evenodd" clip-rule="evenodd" d="M7.94325 0.246094C7.96677 0.246094 7.99024 0.246209 8.01367 0.246437V4.07834C7.99032 4.07796 7.96685 4.07776 7.94325 4.07776C5.96654 4.07776 4.97102 5.68921 4.97102 7.15742V17.3203H0.78125V6.69189C0.78125 3.36156 3.28795 0.246094 7.94325 0.246094ZM8.08837 0.246094C8.06354 0.246094 8.03876 0.246222 8.01404 0.246477V4.07841C8.03868 4.07798 8.06345 4.07776 8.08837 4.07776C10.0651 4.07776 11.0606 5.68921 11.0606 7.15742V17.3203H15.2504V6.69189C15.2504 3.36156 12.7437 0.246094 8.08837 0.246094Z" fill="#111D2D"/>
<path fill-rule="evenodd" clip-rule="evenodd" d="M25.5922 17.75C25.5668 17.75 25.5415 17.7499 25.5162 17.7496V13.9177C25.5414 13.9181 25.5667 13.9183 25.5922 13.9183C27.5689 13.9183 28.5644 12.3069 28.5644 10.8387V0.675747H32.7542V11.3042C32.7542 14.6345 30.2475 17.75 25.5922 17.75ZM25.4472 17.7498C25.4701 17.7498 25.493 17.7497 25.5159 17.7495V13.9176C25.4931 13.9179 25.4702 13.9181 25.4472 13.9181C23.4704 13.9181 22.4749 12.3067 22.4749 10.8384V0.675526H18.2852V11.304C18.2852 14.6343 20.7919 17.7498 25.4472 17.7498Z" fill="#111D2D"/>
<path fill-rule="evenodd" clip-rule="evenodd" d="M43.096 17.75C43.0724 17.75 43.0489 17.7499 43.0254 17.7497V13.9177C43.0488 13.9181 43.0723 13.9183 43.096 13.9183C45.0727 13.9183 46.0682 12.3069 46.0682 10.8387V0.675747H50.258V11.3042C50.258 14.6345 47.7513 17.75 43.096 17.75ZM42.9569 17.7498C42.9797 17.7498 43.0025 17.7497 43.0252 17.7495V13.9176C43.0026 13.9179 42.9798 13.9181 42.9569 13.9181C40.9802 13.9181 39.9847 12.3067 39.9847 10.8384V0.675526H35.7949V11.304C35.7949 14.6343 38.3016 17.7498 42.9569 17.7498Z" fill="#111D2D"/>
<path fill-rule="evenodd" clip-rule="evenodd" d="M60.6053 4.07776C60.5824 4.07776 60.5597 4.07795 60.5371 4.07831V4.07844C60.5118 4.07799 60.4864 4.07776 60.4608 4.07776C58.4841 4.07776 57.4886 5.68921 57.4886 7.15742V9.91476H63.5775V7.15742C63.5775 5.68921 62.582 4.07776 60.6053 4.07776ZM63.5775 13.066V17.3203H67.7673V6.69189C67.7673 3.36156 65.2606 0.246094 60.6053 0.246094C60.5824 0.246094 60.5596 0.246202 60.5368 0.246419V0.246494C60.5115 0.246228 60.4862 0.246094 60.4608 0.246094C55.8055 0.246094 53.2988 3.36156 53.2988 6.69189V17.3203H57.4886V13.066H63.5775Z" fill="#111D2D"/>
</svg>
